<svg xmlns:xlink="http://www.w3.org/1999/xlink" xmlns="http://www.w3.org/2000/svg" fill="#696969" height="512" viewBox="0 0 128 128" width="512"><path d="M91.5 18.63H35.62c-.55 0-1 .45-1 1v89.63c0 .55.45 1 1 1h1.15l.83 3.96c.1.46.5.8.98.8h6.5c.47 0 .88-.33.98-.8l.83-3.96h34.2l.83 3.96c.1.46.5.8.98.8h6.5c.47 0 .88-.33.98-.8l.83-3.96h.27c.55 0 1-.45 1-1V19.63c.01-.56-.44-1-1-1zm-54.88 2H90.5v87.63H36.62zM44.27 113H39.4l-.58-2.75h6.04zm44.34 0h-4.88l-.58-2.75h6.04zM41.45 92.5h44.2c.55 0 1-.45 1-1V23.63c0-.55-.45-1-1-1h-44.2c-.55 0-1 .45-1 1V91.5c0 .55.45 1 1 1zm1-67.87h42.2V90.5h-42.2zm33.27 19.35a.51.51 0 0 0-.03-.17c-.02-.07-.04-.13-.07-.2s-.06-.1-.1-.17c-.02-.03-.03-.06-.06-.1-2.2-2.35-4.9-2.54-6.94-2.08.77-1 2.72-2.94 5.83-2h.04c.08.02.16.04.24.04.02 0 .05-.01.07-.01.03 0 .06-.01.1-.01.04-.01.07 0 .1-.01s.06-.03.1-.05a1.14 1.14 0 0 0 .19-.1c.05-.03.1-.07.13-.1.05-.05.1-.1.14-.16.03-.05.06-.1.08-.16a.88.88 0 0 1 .06-.1c.01-.03 0-.06.01-.1l.02-.17c0-.08 0-.15-.02-.23 0-.02 0-.05-.01-.07a12.01 12.01 0 0 0-3.1-5.23h-.02l-.1-.1c-.02-.02-.05-.03-.07-.04-.06-.05-.13-.1-.2-.13l-.16-.06c-.07-.02-.13-.03-.2-.04s-.13 0-.2.01c-.04 0-.07-.01-.1 0-3.14.74-4.65 2.97-5.27 4.96-.48-1.18-1.17-3.84 1.18-6.05.02-.02.03-.05.05-.07.05-.05.08-.1.12-.16l.1-.18c.01-.03.03-.05.04-.07.01-.04 0-.07.01-.1a1.41 1.41 0 0 0 .01-.2c0-.06-.01-.12-.03-.18-.02-.07-.04-.13-.07-.2s-.06-.1-.1-.16c-.02-.03-.03-.07-.06-.1-.02-.02-.05-.03-.07-.05l-.15-.1a.72.72 0 0 0-.2-.09c-.02-.01-.04-.03-.07-.03-2.04-.52-4.24-.48-6.25.1-.03.01-.05.03-.08.04-.07.03-.14.06-.2.1a1.06 1.06 0 0 0-.12.1c-.05.05-.1.1-.14.17-.03.05-.06.1-.08.16-.02.04-.04.06-.05.1-.93 3.08.25 5.5 1.65 7.04-1.27-.17-3.9-.88-4.64-4.03-.01-.03-.02-.05-.03-.07-.02-.06-.05-.12-.08-.18s-.07-.12-.12-.17c-.02-.02-.02-.04-.04-.06s-.06-.03-.08-.05a.76.76 0 0 0-.19-.12l-.15-.06c-.07-.02-.14-.03-.22-.04h-.16c-.04 0-.08-.01-.13 0-.04.01-.06.03-.1.04l-.14.06c-.08.04-.15.1-.2.14-.02.01-.03.02-.05.03-1.48 1.53-2.53 3.4-3.04 5.46-.01.03 0 .06 0 .1-.01.07-.02.15-.01.22a.51.51 0 0 0 .03.17l.07.2c.03.07.06.1.1.17.02.03.03.06.05.1 1.6 1.72 3.5 2.28 5.18 2.28.63 0 1.22-.1 1.78-.22-.76 1-2.7 2.97-5.85 2.03-.02-.01-.04 0-.07-.01-.07-.02-.14-.02-.22-.02-.07 0-.13 0-.2.02-.03.01-.05 0-.08.01s-.06.03-.1.05a1.14 1.14 0 0 0-.19.1c-.05.03-.1.07-.13.1a1.01 1.01 0 0 0-.13.16c-.03.05-.06.1-.08.16l-.06.1c-.01.03 0 .06-.01.1l-.02.17c0 .08 0 .15.02.23 0 .02 0 .04.01.07.57 2.02 1.68 3.88 3.2 5.36.01.01.02.01.03.02a.82.82 0 0 0 .25.16l.06.03c.1.04.23.07.36.07a.91.91 0 0 0 .23-.03c3.14-.74 4.65-2.97 5.27-4.96.48 1.18 1.17 3.84-1.18 6.04-.02.02-.03.04-.05.06-.05.05-.08.1-.12.17l-.1.18c-.01.03-.03.04-.03.07-.01.03 0 .07 0 .1-.01.07-.02.14-.01.2 0 .06.01.12.03.17.02.07.04.13.07.2s.06.1.1.16c.02.03.03.07.06.1.02.02.05.03.07.05.05.05.1.08.17.12l.18.1c.02.01.04.03.07.03.96.24 1.95.36 2.94.36a12.12 12.12 0 0 0 3.3-.46h.01a1.29 1.29 0 0 0 .33-.17c.02-.01.03-.03.04-.04.07-.07.14-.14.2-.23.02-.03.03-.06.05-.1s.05-.08.06-.13c.93-3.08-.25-5.5-1.66-7.04 1.27.17 3.9.9 4.65 4.04l.03.08a1.01 1.01 0 0 0 .07.15.99.99 0 0 0 .11.17c.03.04.06.08.1.1.06.05.12.1.2.13l.1.06a.89.89 0 0 0 .36.07.91.91 0 0 0 .23-.03c.04-.01.07-.04.1-.05l.14-.06a.75.75 0 0 0 .2-.15c.02-.02.04-.03.06-.05 1.46-1.52 2.5-3.4 3-5.43.01-.03 0-.06 0-.1.01-.06.01-.13.01-.2zM64 43.63c-1.25 0-2.27-1.02-2.27-2.27S62.75 39.1 64 39.1s2.27 1.02 2.27 2.27-1.02 2.27-2.27 2.27zm7.38-9.08a9.92 9.92 0 0 1 1.7 2.51c-2.2-.1-4 .86-5.2 1.98.16-1.2.8-3.58 3.5-4.5zm-6.57-3.2c-1.2 1.87-1.24 3.88-.88 5.5-.95-.73-2.7-2.5-2.14-5.28 1-.2 2-.3 3.02-.2zm-10.4 7.03a9.93 9.93 0 0 1 1.32-2.72c1.02 1.96 2.74 3 4.3 3.5-1.1.46-3.52 1.08-5.63-.78zm2.2 9.8a10.1 10.1 0 0 1-1.7-2.51c.1 0 .22.02.32.02 2.06 0 3.72-.93 4.88-2-.17 1.2-.84 3.58-3.5 4.48zm6.57 3.2c1.2-1.87 1.24-3.88.88-5.5.95.73 2.7 2.5 2.14 5.27-1 .22-2 .3-3.02.22zm4.77-7.8c1.1-.45 3.52-1.08 5.63.78a9.93 9.93 0 0 1-1.32 2.72c-1.02-1.96-2.74-3-4.3-3.5zm7.77 32.92a.51.51 0 0 0-.03-.17c-.02-.07-.04-.13-.07-.2s-.06-.1-.1-.16c-.02-.03-.03-.06-.06-.1-2.2-2.35-4.9-2.54-6.93-2.08.78-1 2.74-2.93 5.82-2 .02.01.04 0 .06.01.08.02.15.04.23.04.02 0 .04-.01.07-.01.04 0 .07-.01.1-.02s.06 0 .1-.01c.03-.01.05-.03.08-.04.07-.03.14-.06.2-.1a1.06 1.06 0 0 0 .12-.1c.05-.05.1-.1.14-.17.03-.05.06-.1.08-.15.02-.04.05-.07.06-.1s0-.06.01-.1l.02-.17c0-.08 0-.16-.02-.23 0-.02 0-.04-.01-.07a12.01 12.01 0 0 0-3.1-5.23l-.02-.02c-.04-.04-.06-.08-.1-.1-.02-.02-.05-.03-.07-.04-.06-.05-.13-.1-.2-.13l-.14-.05c-.07-.02-.14-.03-.2-.04-.06 0-.12 0-.18.01-.04 0-.07-.01-.1 0-3.14.74-4.65 2.97-5.27 4.96-.48-1.18-1.17-3.84 1.18-6.05.02-.02.03-.05.05-.07.04-.05.08-.1.1-.16.04-.06.07-.12.1-.2.01-.03.03-.04.03-.07.01-.03 0-.07 0-.1.01-.07.01-.14.01-.2s-.01-.12-.03-.17c-.02-.07-.04-.13-.07-.2s-.06-.1-.1-.16c-.02-.03-.03-.07-.06-.1-.02-.02-.05-.03-.07-.05l-.15-.1a.82.82 0 0 0-.19-.09c-.02-.01-.04-.03-.07-.03a12.15 12.15 0 0 0-6.25.1c-.03.01-.05.03-.08.04a1.06 1.06 0 0 0-.33.21 1.07 1.07 0 0 0-.14.16c-.03.05-.06.1-.08.16-.02.04-.04.06-.05.1-.93 3.08.25 5.5 1.66 7.04-1.26-.17-3.9-.88-4.65-4.04-.01-.03-.02-.05-.03-.07-.02-.06-.05-.12-.08-.18s-.07-.12-.12-.17c-.02-.02-.02-.04-.04-.06s-.06-.03-.08-.05a.76.76 0 0 0-.19-.12l-.15-.06c-.07-.02-.14-.03-.2-.04h-.16c-.04 0-.08-.01-.13 0-.04.01-.06.03-.1.04l-.14.06c-.08.04-.15.1-.2.14-.02.01-.03.02-.05.03-1.48 1.53-2.53 3.4-3.04 5.46-.01.03 0 .06 0 .1-.01.07-.02.15-.01.22a.51.51 0 0 0 .03.17l.07.2c.03.07.06.1.1.17.02.03.03.06.05.1 1.6 1.72 3.5 2.28 5.18 2.28.63 0 1.22-.1 1.77-.22-.77 1-2.74 2.96-5.84 2.02-.02-.01-.05 0-.07-.01-.07-.02-.14-.02-.2-.02s-.13 0-.2.02c-.03.01-.05 0-.08.01-.04 0-.06.03-.1.04a1.14 1.14 0 0 0-.19.1c-.05.03-.1.07-.13.1-.05.05-.1.1-.14.16-.03.05-.06.1-.08.16-.02.04-.05.07-.06.1s0 .06-.01.1l-.02.17c0 .08 0 .15.02.23a.17.17 0 0 0 .01.07 11.97 11.97 0 0 0 3.21 5.36c.01.01.02.01.03.02.08.07.16.12.25.16.02.01.03.02.05.03a1.05 1.05 0 0 0 .36.07.91.91 0 0 0 .23-.03c3.14-.74 4.65-2.97 5.27-4.96.48 1.18 1.17 3.84-1.18 6.05-.02.02-.03.05-.05.07-.05.05-.08.1-.12.16a1.62 1.62 0 0 0-.1.18c-.01.03-.03.04-.03.07-.01.03 0 .07 0 .1-.01.07-.02.14-.01.2 0 .06.01.12.03.17.02.07.04.13.07.2s.06.1.1.16c.02.03.03.07.06.1.02.02.05.03.07.05.05.05.1.08.17.12l.18.1c.02.01.04.03.07.03.96.24 1.95.36 2.94.36a12.12 12.12 0 0 0 3.3-.46h.01a1.29 1.29 0 0 0 .33-.17c.02-.01.03-.03.04-.04a1.5 1.5 0 0 0 .2-.23c.02-.03.03-.07.05-.1.02-.04.05-.08.06-.12.93-3.08-.25-5.5-1.66-7.04 1.27.17 3.9.88 4.64 4.04l.03.08.06.15c.03.06.07.12.12.17a.9.9 0 0 0 .09.1.77.77 0 0 0 .21.14c.03.02.06.04.1.05.12.05.24.08.37.08a.91.91 0 0 0 .23-.03c.04-.01.07-.04.1-.05l.14-.06a.8.8 0 0 0 .21-.15c.02-.02.04-.03.06-.04 1.47-1.52 2.5-3.4 3-5.43.01-.03 0-.06 0-.1.01-.1.01-.17.01-.24zM64 76.16c-1.25 0-2.27-1.02-2.27-2.27s1.02-2.27 2.27-2.27 2.27 1.02 2.27 2.27-1.02 2.27-2.27 2.27zm7.38-9.08a9.96 9.96 0 0 1 1.7 2.5c-2.2-.1-3.98.86-5.2 1.98.16-1.2.83-3.58 3.5-4.48zm-6.57-3.2c-1.2 1.87-1.24 3.88-.88 5.5-.95-.73-2.7-2.5-2.14-5.27 1-.23 2-.3 3.02-.22zM54.4 70.9a9.93 9.93 0 0 1 1.32-2.72c1.02 1.97 2.74 3.02 4.32 3.5-1.1.45-3.5 1.1-5.64-.8zm2.2 9.8a10.1 10.1 0 0 1-1.7-2.51c.1 0 .22.02.32.02 2.07 0 3.73-.93 4.88-2-.16 1.18-.8 3.58-3.5 4.5zm6.57 3.2c1.2-1.87 1.24-3.88.88-5.5.95.73 2.7 2.5 2.14 5.27-1 .23-2 .3-3.02.22zm4.76-7.8c1.1-.46 3.5-1.1 5.64.8a9.93 9.93 0 0 1-1.32 2.72c-1.02-1.97-2.75-3.02-4.32-3.5zM64 94a6.02 6.02 0 0 0-6 6 6.02 6.02 0 0 0 6 6 6.02 6.02 0 0 0 6-6 6.02 6.02 0 0 0-6-6zm0 10a4 4 0 1 1 0-8 4 4 0 1 1 0 8zm11.15-43.8c-7.02-2.67-14.47-2.65-22.22.08a4.27 4.27 0 0 0-2.61 2.56c-2.7 7.46-2.7 14.7.02 22.17.43 1.18 1.36 2.1 2.55 2.55 3.7 1.35 7.43 2.04 11.1 2.04s7.42-.68 11.1-2.04c1.18-.43 2.1-1.36 2.55-2.55 2.74-7.5 2.73-14.78-.02-22.28a4.29 4.29 0 0 0-2.49-2.53zm.63 24.1c-.23.63-.73 1.13-1.36 1.36-6.94 2.54-13.9 2.54-20.84 0-.63-.23-1.13-.73-1.36-1.36-2.56-7-2.56-13.8-.02-20.8a2.25 2.25 0 0 1 1.4-1.36c3.7-1.3 7.34-1.96 10.83-1.96a28.13 28.13 0 0 1 10.01 1.86 2.26 2.26 0 0 1 1.32 1.35c2.6 7.04 2.6 13.87.03 20.9zm-.63-56.63c-7.02-2.67-14.47-2.65-22.22.08a4.27 4.27 0 0 0-2.61 2.56c-2.7 7.46-2.7 14.7.02 22.17a4.26 4.26 0 0 0 2.55 2.55c3.7 1.35 7.43 2.04 11.1 2.04s7.42-.7 11.1-2.04a4.26 4.26 0 0 0 2.55-2.55c2.76-7.48 2.76-14.78 0-22.28a4.27 4.27 0 0 0-2.5-2.54zm.63 24.1a2.26 2.26 0 0 1-1.36 1.36c-6.95 2.54-13.9 2.54-20.84 0a2.26 2.26 0 0 1-1.36-1.36c-2.56-7-2.56-13.8-.02-20.8a2.25 2.25 0 0 1 1.4-1.36c3.7-1.3 7.34-1.96 10.83-1.96a27.83 27.83 0 0 1 10 1.87 2.26 2.26 0 0 1 1.32 1.35c2.6 7.03 2.6 13.86.03 20.9z"/></svg>