<svg xmlns="http://www.w3.org/2000/svg" xmlns:xlink="http://www.w3.org/1999/xlink" fill="#696969" height="512" viewBox="0 0 128 128" width="512"><path d="M94.04 67.72h6.6a5.57 5.57 0 0 0 4.1 1.8 5.55 5.55 0 0 0 5.54-5.54 5.54 5.54 0 0 0-5.54-5.54c-1.56 0-3.05.67-4.1 1.8h-6.6v-10.7h6.6a5.57 5.57 0 0 0 4.1 1.8 5.55 5.55 0 0 0 5.54-5.54 5.54 5.54 0 0 0-5.54-5.54 5.53 5.53 0 0 0-4.09 1.82H94c-.4-4.3-3.83-7.72-8.12-8.12v-6.63a5.59 5.59 0 0 0 1.82-4.1 5.55 5.55 0 0 0-5.54-5.54 5.54 5.54 0 0 0-5.54 5.54c0 1.56.67 3.05 1.8 4.1v6.6h-10.7v-6.6a5.57 5.57 0 0 0 1.8-4.1 5.55 5.55 0 0 0-5.54-5.54 5.54 5.54 0 0 0-5.54 5.54c0 1.56.67 3.05 1.8 4.1v6.6h-10.7v-6.6a5.57 5.57 0 0 0 1.8-4.1 5.55 5.55 0 0 0-5.54-5.54 5.54 5.54 0 0 0-5.54 5.54 5.53 5.53 0 0 0 1.82 4.09V34c-4.3.4-7.72 3.83-8.12 8.12h-6.63a5.59 5.59 0 0 0-4.1-1.82 5.55 5.55 0 0 0-5.54 5.54 5.54 5.54 0 0 0 5.54 5.54c1.56 0 3.05-.67 4.1-1.8h6.6v10.7h-6.6a5.57 5.57 0 0 0-4.1-1.8 5.55 5.55 0 0 0-5.54 5.54 5.54 5.54 0 0 0 5.54 5.54c1.56 0 3.05-.67 4.1-1.8h6.6v10.7h-6.6a5.57 5.57 0 0 0-4.1-1.8 5.55 5.55 0 0 0-5.54 5.54 5.54 5.54 0 0 0 5.54 5.54 5.53 5.53 0 0 0 4.09-1.82H34c.4 4.3 3.83 7.72 8.12 8.12v6.63a5.59 5.59 0 0 0-1.82 4.1 5.55 5.55 0 0 0 5.54 5.54 5.54 5.54 0 0 0 5.54-5.54c0-1.56-.67-3.05-1.8-4.1v-6.6h10.7v6.6a5.57 5.57 0 0 0-1.8 4.1 5.55 5.55 0 0 0 5.54 5.54 5.54 5.54 0 0 0 5.54-5.54c0-1.56-.67-3.05-1.8-4.1v-6.6h10.7v6.6a5.57 5.57 0 0 0-1.8 4.1 5.55 5.55 0 0 0 5.54 5.54 5.54 5.54 0 0 0 5.54-5.54 5.53 5.53 0 0 0-1.82-4.09V94c4.3-.4 7.72-3.83 8.12-8.12h6.63a5.59 5.59 0 0 0 4.1 1.82 5.55 5.55 0 0 0 5.54-5.54 5.54 5.54 0 0 0-5.54-5.54c-1.56 0-3.05.67-4.1 1.8h-6.6v-10.7zm7.05-5.44c.02 0 .04-.01.07-.01.07 0 .13-.02.2-.04.06-.02.12-.03.17-.06.06-.03.1-.07.15-.1a.5.5 0 0 0 .15-.14c.02-.02.04-.03.05-.05a3.54 3.54 0 0 1 2.83-1.42 3.55 3.55 0 0 1 3.54 3.54 3.55 3.55 0 0 1-3.54 3.54c-1.1 0-2.16-.53-2.83-1.42-.01-.02-.04-.03-.05-.05-.05-.05-.1-.1-.15-.14s-.1-.08-.15-.1c-.06-.03-.12-.04-.18-.06-.07-.02-.13-.03-.2-.04-.02 0-.05-.01-.07-.01h-7.05v-3.45h7.06zm3.63-19.97a3.55 3.55 0 0 1 3.54 3.54 3.55 3.55 0 0 1-3.54 3.54c-1.1 0-2.16-.53-2.83-1.42-.01-.02-.04-.03-.05-.05a1.92 1.92 0 0 0-.15-.14c-.05-.04-.1-.07-.15-.1-.06-.03-.12-.04-.18-.06s-.13-.03-.2-.04c-.02 0-.05-.01-.07-.01h-7.05v-3.45h7.05c.02 0 .04-.01.07-.01.07 0 .13-.02.2-.04.06-.02.12-.03.18-.06.05-.03.1-.06.15-.1a.5.5 0 0 0 .15-.14c.02-.02.04-.03.05-.05a3.5 3.5 0 0 1 2.82-1.4zm-24.3-15.46c0-.07-.02-.13-.04-.2-.02-.06-.03-.12-.06-.17-.03-.06-.07-.1-.1-.15a.5.5 0 0 0-.14-.15c-.02-.02-.03-.04-.05-.05a3.54 3.54 0 0 1-1.42-2.83 3.55 3.55 0 0 1 3.54-3.54 3.55 3.55 0 0 1 3.54 3.54c0 1.1-.53 2.16-1.42 2.83-.02.01-.03.04-.05.05-.05.05-.1.1-.14.15s-.08.1-.1.15c-.03.05-.04.1-.06.17s-.04.13-.04.2c0 .02-.01.04-.01.07v7.05h-3.45v-7.05c.01-.03 0-.05 0-.07zm-18.16 0c0-.07-.02-.13-.04-.2-.02-.06-.03-.12-.06-.17-.03-.06-.07-.1-.1-.15a.5.5 0 0 0-.14-.15c-.02-.02-.03-.04-.05-.05a3.54 3.54 0 0 1-1.42-2.83 3.55 3.55 0 0 1 3.54-3.54 3.55 3.55 0 0 1 3.54 3.54c0 1.1-.53 2.16-1.42 2.83-.02.01-.03.04-.05.05-.05.05-.1.1-.14.15s-.08.1-.1.15c-.03.05-.04.1-.06.17s-.04.13-.04.2c0 .02-.01.04-.01.07v7.05h-3.45v-7.05c.02-.03 0-.05 0-.07zm-16.4-7.1a3.55 3.55 0 0 1 3.54 3.54c0 1.1-.53 2.16-1.42 2.83-.02.01-.03.04-.05.05-.05.05-.1.1-.14.15s-.08.1-.1.15c-.03.05-.04.1-.06.17s-.04.13-.04.2c0 .02-.01.04-.01.07v7.05h-3.45V26.9c0-.02-.01-.04-.01-.07 0-.07-.02-.13-.04-.2-.02-.06-.03-.12-.06-.17-.03-.06-.07-.1-.1-.15a.5.5 0 0 0-.14-.15c-.02-.02-.03-.04-.05-.05a3.54 3.54 0 0 1-1.42-2.83c.01-1.96 1.6-3.54 3.55-3.54zM26.9 47.57c-.02 0-.05.01-.07.01-.07 0-.13.02-.2.04-.06.02-.12.03-.18.06-.05.03-.1.06-.15.1a.5.5 0 0 0-.15.14c-.02.02-.04.03-.05.05a3.54 3.54 0 0 1-2.83 1.42 3.55 3.55 0 0 1-3.54-3.54 3.55 3.55 0 0 1 3.54-3.54c1.1 0 2.16.53 2.83 1.42.01.02.04.03.05.05.05.05.1.1.15.14s.1.08.15.1c.05.03.1.04.17.06s.13.04.2.04c.02 0 .04.01.07.01h7.05v3.45H26.9zm0 18.15c-.02 0-.05.01-.07.01-.07 0-.13.02-.2.04-.06.02-.12.03-.18.06-.05.03-.1.06-.15.1a.5.5 0 0 0-.15.14c-.02.02-.04.03-.05.05a3.54 3.54 0 0 1-2.83 1.42A3.55 3.55 0 0 1 19.74 64a3.55 3.55 0 0 1 3.54-3.54c1.1 0 2.16.53 2.83 1.42.01.02.04.03.05.05a1.74 1.74 0 0 0 .15.13c.05.04.1.08.16.1.05.03.1.04.17.06s.14.04.2.04c.02 0 .04.01.06.01h7.05v3.45zM23.28 85.7a3.55 3.55 0 0 1-3.54-3.54 3.55 3.55 0 0 1 3.54-3.54c1.1 0 2.16.53 2.83 1.42.01.02.04.03.05.05.05.05.1.1.15.14s.1.08.15.1c.05.03.1.04.17.06s.13.04.2.04c.02 0 .04.01.07.01h7.05v3.45H26.9c-.02 0-.04.01-.07.01-.07 0-.13.02-.2.04-.06.02-.12.03-.17.06-.06.03-.1.07-.15.1a.5.5 0 0 0-.15.14c-.02.02-.04.03-.05.05-.66.88-1.72 1.4-2.83 1.4zm24.3 15.46c0 .07.02.13.04.2.02.06.03.12.06.17.03.06.07.1.1.15a.5.5 0 0 0 .14.15c.02.02.03.04.05.05a3.54 3.54 0 0 1 1.42 2.83 3.55 3.55 0 0 1-3.54 3.54 3.55 3.55 0 0 1-3.54-3.54c0-1.1.53-2.16 1.42-2.83.02-.01.03-.04.05-.05.05-.05.1-.1.14-.15s.08-.1.1-.15c.03-.05.04-.1.06-.17s.04-.13.04-.2c0-.02.01-.04.01-.07v-7.05h3.45v7.05c-.01.03 0 .05 0 .07zm18.16 0c0 .07.02.13.04.2.02.06.03.12.06.17.03.06.07.1.1.15a.5.5 0 0 0 .14.15c.02.02.03.04.05.05a3.54 3.54 0 0 1 1.42 2.83 3.55 3.55 0 0 1-3.54 3.54 3.55 3.55 0 0 1-3.54-3.54c0-1.1.53-2.16 1.42-2.83.02-.01.03-.04.05-.05.05-.05.1-.1.14-.15s.08-.1.1-.15c.03-.05.04-.1.06-.17s.04-.13.04-.2c0-.02.01-.04.01-.07v-7.05h3.45v7.05c-.02.03 0 .05 0 .07zm16.4 7.1a3.55 3.55 0 0 1-3.54-3.54c0-1.1.53-2.16 1.42-2.83.02-.01.03-.04.05-.05a1.92 1.92 0 0 0 .14-.15c.04-.05.08-.1.1-.15.03-.05.04-.1.06-.17s.04-.13.04-.2c0-.02.01-.04.01-.07v-7.05h3.45v7.05c0 .02.01.04.01.07 0 .07.02.13.04.2.02.06.03.12.06.17.03.06.07.1.1.15a.5.5 0 0 0 .14.15c.02.02.03.04.05.05a3.54 3.54 0 0 1 1.42 2.83c-.01 1.96-1.6 3.54-3.55 3.54zm9.9-23.2a7.01 7.01 0 0 1-7 7H42.96a7.01 7.01 0 0 1-7-7v-42.1a7.01 7.01 0 0 1 7-7h42.08a7.01 7.01 0 0 1 7 7zm9.05-4.6c.02 0 .04-.01.07-.01.07 0 .13-.02.2-.04.06-.02.12-.03.17-.06.06-.03.1-.07.15-.1a.5.5 0 0 0 .15-.14c.02-.02.04-.03.05-.05a3.54 3.54 0 0 1 2.83-1.42 3.55 3.55 0 0 1 3.54 3.54 3.55 3.55 0 0 1-3.54 3.54c-1.1 0-2.16-.53-2.83-1.42-.01-.02-.04-.03-.05-.05-.05-.05-.1-.1-.15-.14s-.1-.07-.15-.1c-.06-.03-.12-.04-.18-.06-.07-.02-.13-.04-.2-.04-.02 0-.04-.01-.07-.01h-7.05v-3.45h7.06zm-24.23-32.9H51.14c-3.25 0-5.9 2.36-5.9 5.25v22.36c0 2.9 2.64 5.25 5.9 5.25h25.72c3.25 0 5.9-2.36 5.9-5.25V52.82c0-2.9-2.64-5.25-5.9-5.25zm3.9 27.6c0 1.8-1.75 3.25-3.9 3.25H51.14c-2.14 0-3.9-1.46-3.9-3.25V52.82c0-1.8 1.75-3.25 3.9-3.25h25.72c2.14 0 3.9 1.46 3.9 3.25zm4.2 3.3c0-1.4 1-2.63 2.36-2.93 1.28-.28 2.2-1.43 2.2-2.74V55.2c0-1.3-.93-2.46-2.2-2.74-1.37-.3-2.36-1.53-2.36-2.93v-1.5c0-2.76-2.24-5-5-5H48.03c-2.76 0-5 2.24-5 5v1.5c0 1.4-1 2.63-2.36 2.93-1.28.28-2.2 1.43-2.2 2.74v17.6c0 1.3.93 2.46 2.2 2.74 1.37.3 2.36 1.53 2.36 2.93v1.5c0 2.76 2.24 5 5 5h31.94c2.76 0 5-2.24 5-5zm-2 0v1.5a3.01 3.01 0 0 1-3 3H48.03a3.01 3.01 0 0 1-3-3v-1.5c0-2.33-1.65-4.38-3.93-4.88a.8.8 0 0 1-.63-.78V55.2c0-.37.27-.7.63-.78 2.28-.5 3.93-2.55 3.93-4.88v-1.5a3.01 3.01 0 0 1 3-3h31.94a3.01 3.01 0 0 1 3 3v1.5c0 2.33 1.65 4.38 3.93 4.88a.8.8 0 0 1 .63.78v17.6c0 .37-.27.7-.63.78a5.04 5.04 0 0 0-3.93 4.9zm-16.15-55.2c0-1.55-1.26-2.82-2.82-2.82s-2.82 1.26-2.82 2.82S62.45 26.1 64 26.1a2.83 2.83 0 0 0 2.82-2.82zm-3.63 0c0-.45.37-.82.82-.82s.82.37.82.82-.38.82-.83.82-.8-.37-.8-.82z"/><use xlink:href="#B"/><path d="m84.97 23.28c0-1.55-1.26-2.82-2.82-2.82s-2.82 1.26-2.82 2.82 1.26 2.82 2.82 2.82 2.82-1.27 2.82-2.82zm-3.63 0c0-.45.37-.82.82-.82s.82.37.82.82-.37.82-.82.82-.82-.37-.82-.82z"/><use xlink:href="#C"/><use xlink:href="#C" x="-18.17"/><use xlink:href="#D"/><path d="m23.28 61.18c-1.55 0-2.82 1.26-2.82 2.82s1.26 2.82 2.82 2.82 2.82-1.27 2.82-2.82-1.27-2.82-2.82-2.82zm0 3.63c-.45 0-.82-.37-.82-.82s.37-.82.82-.82.82.38.82.83-.37.81-.82.81z"/><use xlink:href="#D" x="-58.87" y="-22.56"/><use xlink:href="#D" x="-58.87" y="-58.87"/><use xlink:href="#B" x="-4.57" y="17.56"/><use xlink:href="#D" x="4.57" y="-63.87"/><use xlink:href="#D" x="-40.87" y="-17.56"/><use xlink:href="#D" x="4.57" y="-17.56"/><use xlink:href="#B" x="58.87" y="40.7"/><use xlink:href="#B" x="58.87" y="58.87"/><use xlink:href="#B" x="58.87" y="22.56"/><defs><path id="B" d="m45.85 26.1c1.55 0 2.82-1.26 2.82-2.82s-1.26-2.82-2.82-2.82-2.82 1.26-2.82 2.82 1.27 2.82 2.82 2.82zm0-3.63c.45 0 .82.37.82.82s-.37.82-.82.82-.82-.37-.82-.82.37-.82.82-.82z"/><path id="C" d="M61.2 104.72c0 1.55 1.26 2.82 2.82 2.82s2.82-1.26 2.82-2.82-1.26-2.82-2.82-2.82-2.82 1.27-2.82 2.82zm3.63 0c0 .45-.37.82-.82.82s-.82-.37-.82-.82.37-.82.82-.82.82.37.82.82z"/><path id="D" d="m82.15 101.9c-1.55 0-2.82 1.26-2.82 2.82s1.26 2.82 2.82 2.82 2.82-1.26 2.82-2.82-1.27-2.82-2.82-2.82zm0 3.63c-.45 0-.82-.37-.82-.82s.37-.82.82-.82.82.37.82.82-.37.82-.82.82z"/></defs></svg>