<svg xmlns="http://www.w3.org/2000/svg" xmlns:xlink="http://www.w3.org/1999/xlink" fill="#696969" height="512" viewBox="0 0 128 128" width="512"><path d="M64 30.55c-18.44 0-33.45 15-33.45 33.45s15 33.45 33.45 33.45 33.45-15 33.45-33.45-15-33.45-33.45-33.45zm0 64.9c-17.34 0-31.45-14.1-31.45-31.45S46.66 32.55 64 32.55 95.45 46.66 95.45 64 81.34 95.45 64 95.45z"/><use xlink:href="#B"/><path d="M32.55 28.02c0-2.5-2.03-4.53-4.53-4.53s-4.53 2.03-4.53 4.53 2.03 4.53 4.53 4.53 4.53-2.03 4.53-4.53zm-7.06 0c0-1.4 1.14-2.53 2.53-2.53a2.54 2.54 0 0 1 2.53 2.53 2.54 2.54 0 0 1-2.53 2.53c-1.4 0-2.53-1.13-2.53-2.53zm79.02 0c0-2.5-2.03-4.53-4.53-4.53s-4.53 2.03-4.53 4.53 2.03 4.53 4.53 4.53 4.53-2.03 4.53-4.53zm-4.53 2.53c-1.4 0-2.53-1.14-2.53-2.53a2.54 2.54 0 0 1 2.53-2.53 2.54 2.54 0 0 1 2.53 2.53c0 1.4-1.13 2.53-2.53 2.53zm-4.53 69.43c0 2.5 2.03 4.53 4.53 4.53s4.53-2.03 4.53-4.53-2.03-4.53-4.53-4.53-4.53 2.03-4.53 4.53zm7.06 0c0 1.4-1.14 2.53-2.53 2.53a2.54 2.54 0 0 1-2.53-2.53 2.54 2.54 0 0 1 2.53-2.53c1.4 0 2.53 1.13 2.53 2.53z"/><use xlink:href="#B" x="-35.98" y="35.98"/><path d="M89.7 70.13c0-.05-.01-.1-.02-.15-.02-.07-.04-.14-.07-.2s-.06-.1-.1-.16c-.02-.03-.03-.07-.06-.1-6.1-6.5-13.47-5-17.13-3.65a9.93 9.93 0 0 0 .2-1.56c.83-1.36 6.1-9.2 15.67-6.35.01 0 .02.01.04.01h.03c.1.02.17.04.27.04.03 0 .05-.01.08-.01s.06-.01.08-.01c.04-.01.07 0 .1-.02.03-.01.06-.03.1-.05.07-.03.14-.06.2-.1l.12-.1c.06-.05.1-.1.15-.18a.54.54 0 0 0 .07-.13c.02-.04.05-.08.07-.12.01-.04 0-.07.01-.1s.01-.1.01-.14c0-.1 0-.18-.02-.27v-.05c-1.24-4.4-3.63-8.4-6.92-11.64l-.03-.03c-.03-.03-.06-.07-.1-.1-.01-.01-.03-.01-.04-.02-.08-.07-.16-.12-.25-.16-.03-.02-.07-.03-.1-.04-.08-.03-.16-.04-.24-.04h-.16c-.04 0-.08-.01-.12 0-8.68 2.04-11.07 9.17-11.73 13.02a8.3 8.3 0 0 0-1.25-.96c-.76-1.4-4.93-9.92 2.37-16.78.02-.02.03-.05.05-.07.04-.05.08-.1.1-.16.04-.06.07-.12.1-.2.01-.02.03-.04.03-.07.01-.03 0-.06 0-.1.01-.07.02-.15.01-.22 0-.06-.01-.1-.03-.16-.02-.07-.04-.14-.07-.2l-.1-.15c-.02-.03-.04-.07-.06-.1-.02-.02-.05-.03-.08-.06-.04-.04-.1-.07-.14-.1-.07-.04-.13-.08-.2-.1l-.06-.03c-4.48-1.13-9.3-1.05-13.7.22l-.06.03c-.1.03-.16.07-.24.12-.04.03-.07.05-.1.08-.06.05-.1.1-.15.18-.03.05-.05.1-.08.14-.02.04-.04.06-.06.1-2.57 8.52 2.4 14.16 5.4 16.66a8.98 8.98 0 0 0-1.46.61C58.4 56.36 49 55.7 46.7 45.96c-.01-.02-.02-.04-.03-.07-.02-.06-.05-.12-.08-.18-.04-.07-.08-.13-.13-.2-.01-.01-.02-.03-.03-.05-.02-.02-.04-.02-.06-.04-.07-.06-.15-.1-.23-.15l-.1-.03a.98.98 0 0 0-.29-.05h-.08c-.06 0-.12-.01-.18.01-.05.01-.08.04-.13.06-.02.01-.04.02-.07.03a1.27 1.27 0 0 0-.27.18c-.01.01-.02.01-.03.02-3.25 3.35-5.55 7.5-6.67 11.97-.01.03 0 .05 0 .08-.01.08-.02.16-.01.24a.77.77 0 0 0 .02.15c.02.07.04.14.07.2s.06.1.1.16c.02.03.03.07.06.1 3.5 3.73 7.43 4.83 10.83 4.83 2.52 0 4.74-.6 6.3-1.18a8.99 8.99 0 0 0-.2 1.57c-.83 1.36-6.13 9.23-15.7 6.33-.02-.01-.04 0-.06-.01-.08.05-.16.05-.24.05-.06 0-.12 0-.18.01-.03.01-.06 0-.08.01-.04.01-.06.04-.1.05a1.14 1.14 0 0 0-.19.1.58.58 0 0 0-.12.1.83.83 0 0 0-.15.17c-.03.04-.05.1-.07.13a.45.45 0 0 0-.06.12c-.01.04 0 .07-.01.1s-.01.1-.01.14a1.23 1.23 0 0 0 .02.27v.05c1.25 4.44 3.7 8.5 7.04 11.77.01.01.02.01.03.02a.96.96 0 0 0 .67.27.91.91 0 0 0 .23-.03c8.68-2.04 11.07-9.17 11.73-13.02a8.3 8.3 0 0 0 1.25.96c.76 1.4 4.93 9.92-2.37 16.78-.02.02-.03.04-.04.06-.05.05-.08.1-.12.17l-.1.18c-.01.03-.03.04-.03.07-.01.03 0 .06 0 .1-.01.07-.02.15-.01.22 0 .06.01.1.03.16.02.07.04.14.07.2l.1.15c.02.03.04.07.06.1.02.02.05.03.08.05.05.04.1.07.15.1.07.04.13.07.2.1l.06.03a26.4 26.4 0 0 0 6.46.8c2.46 0 4.9-.34 7.23-1a1.13 1.13 0 0 0 .38-.19c.1-.08.17-.17.23-.27a.3.3 0 0 0 .04-.08c.02-.04.05-.08.06-.13 2.57-8.52-2.4-14.16-5.4-16.66a9.37 9.37 0 0 0 1.46-.61c1.62.05 11.05.7 13.33 10.44.01.03.02.04.03.07.02.06.04.12.07.17.03.06.07.1.1.16.03.04.06.08.1.1a.77.77 0 0 0 .21.14c.03.01.05.03.08.04.12.05.24.08.37.08a.91.91 0 0 0 .23-.03c.05-.01.1-.04.14-.06.03-.01.06-.03.1-.04.1-.05.18-.12.26-.2.01-.01.03-.02.04-.03 3.23-3.35 5.52-7.47 6.63-11.93.01-.03 0-.05 0-.08-.01-.1-.01-.18-.02-.26zm-25.7.4A6.54 6.54 0 0 1 57.47 64 6.54 6.54 0 0 1 64 57.47 6.54 6.54 0 0 1 70.53 64 6.54 6.54 0 0 1 64 70.53zm17.42-23.7a24.58 24.58 0 0 1 5.59 8.81c-7.52-1.42-12.54 3.04-14.86 5.83a9.37 9.37 0 0 0-.61-1.46c.03-1.6.68-10.68 9.88-13.18zm-23.6-6.5a24.42 24.42 0 0 1 10.42-.43c-5 5.8-3.63 12.4-2.38 15.8a9.93 9.93 0 0 0-1.56-.2c-1.33-.8-8.92-5.92-6.48-15.16zM40.4 57.5a24.26 24.26 0 0 1 4.85-9.23c2.54 7.23 8.93 9.34 12.5 9.95a8.3 8.3 0 0 0-.96 1.25c-1.32.7-9.65 4.7-16.4-1.97zm6.17 23.7c-2.48-2.52-4.4-5.53-5.58-8.82a14.37 14.37 0 0 0 2.84.28c5.96 0 10-3.7 12.02-6.12a8.21 8.21 0 0 0 .62 1.46c-.04 1.6-.7 10.7-9.9 13.2zm23.6 6.5a24.42 24.42 0 0 1-10.42.43c5-5.8 3.63-12.4 2.38-15.8a9.93 9.93 0 0 0 1.56.2c1.33.8 8.92 5.92 6.48 15.16zm.1-17.9a8.3 8.3 0 0 0 .96-1.25c1.3-.7 9.64-4.7 16.38 1.97-.92 3.37-2.58 6.53-4.85 9.23-2.53-7.23-8.92-9.34-12.5-9.95zm37.1-34.5c.24-.2.38-.48.38-.8v-9.25c0-2.76-2.24-5-5-5h-7.3a4.93 4.93 0 0 0-3.94 1.93l-1.6 2.05a2.99 2.99 0 0 1-2.37 1.16h-47.1a2.99 2.99 0 0 1-2.37-1.16l-1.6-2.05a4.99 4.99 0 0 0-3.94-1.93h-7.3c-2.76 0-5 2.24-5 5v7.3a4.95 4.95 0 0 0 1.92 3.94l2.04 1.6c.73.57 1.15 1.43 1.15 2.36v47.1a2.96 2.96 0 0 1-1.15 2.36l-3.58 2.8c-.24.2-.38.48-.38.8v9.25c0 2.76 2.24 5 5 5h7.3a4.95 4.95 0 0 0 3.94-1.92l1.6-2.04c.57-.73 1.43-1.15 2.36-1.15h47.1a2.96 2.96 0 0 1 2.36 1.15l1.6 2.04a4.98 4.98 0 0 0 3.94 1.92h7.3c2.76 0 5-2.24 5-5v-7.3a4.95 4.95 0 0 0-1.92-3.94l-2.05-1.6a2.99 2.99 0 0 1-1.16-2.37V39zm-4.83 56.2l2.05 1.6a2.99 2.99 0 0 1 1.16 2.37v7.3a3.01 3.01 0 0 1-3 3h-7.3a2.96 2.96 0 0 1-2.36-1.15l-1.6-2.04a4.98 4.98 0 0 0-3.94-1.92h-47.1a4.95 4.95 0 0 0-3.94 1.92l-1.6 2.04c-.57.73-1.43 1.15-2.36 1.15h-7.3a3.01 3.01 0 0 1-3-3V94l3.2-2.5a4.98 4.98 0 0 0 1.92-3.94V40.44a4.95 4.95 0 0 0-1.92-3.94l-2.04-1.6c-.73-.57-1.15-1.43-1.15-2.36v-7.3a3.01 3.01 0 0 1 3-3h7.3a2.99 2.99 0 0 1 2.37 1.16l1.6 2.05a4.99 4.99 0 0 0 3.94 1.93h47.1a4.93 4.93 0 0 0 3.94-1.93l1.6-2.05a2.99 2.99 0 0 1 2.37-1.16h7.3a3.01 3.01 0 0 1 3 3V34l-4.75 3.7c-.24.2-.38.48-.38.8v49.06c-.02 1.55.68 3 1.9 3.94z"/><defs><path id="B" d="m64 59.47c-2.5 0-4.53 2.03-4.53 4.53s2.03 4.53 4.53 4.53 4.53-2.03 4.53-4.53-2.03-4.53-4.53-4.53zm0 7.06c-1.4 0-2.53-1.14-2.53-2.53s1.14-2.53 2.53-2.53 2.53 1.14 2.53 2.53-1.13 2.53-2.53 2.53z"/></defs></svg>