<svg xmlns:xlink="http://www.w3.org/1999/xlink" xmlns="http://www.w3.org/2000/svg" fill="#696969" height="512" viewBox="0 0 128 128" width="512"><path d="M87.82 34.96a25.35 25.35 0 0 0-8.37 1.44H55.4a24.92 24.92 0 0 0-9.56-1.89c-3.3 0-6.53.64-9.57 1.9H26v-2.86c0-.02.01-.03.01-.05V29a1.01 1.01 0 0 0-1-1h-11.4a3.01 3.01 0 0 0-3 3v.5a3.01 3.01 0 0 0 3 3h5.88v9.73h-3.25c-.55 0-1 .45-1 1v12.7c0 .55.45 1 1 1h3.25v4.83h-3.25c-.55 0-1 .45-1 1v12.7c0 .55.45 1 1 1h3.25V98.5a3.01 3.01 0 0 0 3 3h.5a3.01 3.01 0 0 0 3-3V83h5v6.67c0 .55.45 1 1 1h13.92c.55 0 1-.45 1-1v-4.82a24.42 24.42 0 0 0 4.98-.72v5.54c0 .55.45 1 1 1h28.23c.55 0 1-.45 1-1v-5c1.86.43 3.77.67 5.7.67 13.9 0 25.2-11.3 25.2-25.2s-11.3-25.2-25.2-25.2zM32.4 38.4a25.34 25.34 0 0 0-6.42 5.84V38.4zM17.25 56.92v-10.7h2.25v10.7zm0 19.52v-10.7h2.25v10.7zM24 98.5c0 .55-.45 1-1 1h-.5c-.55 0-1-.45-1-1v-65c0-.55-.45-1-1-1h-6.88c-.55 0-1-.45-1-1V31c0-.55.45-1 1-1H24v52zm2-23.34A25.68 25.68 0 0 0 32.42 81H26zm17.5 13.5v-2.84c0-.55-.45-1-1-1s-1 .45-1 1v2.84h-1.54v-2.84c0-.55-.45-1-1-1s-1 .45-1 1v2.84h-1.54v-2.84c0-.55-.45-1-1-1s-1 .45-1 1v2.84H33V83h3.27c2.74 1.13 5.62 1.75 8.65 1.87v3.8zm33.8 0v-2.84c0-.55-.45-1-1-1s-1 .45-1 1v2.84h-2.64v-2.84c0-.55-.45-1-1-1s-1 .45-1 1v2.84H68v-2.84c0-.55-.45-1-1-1s-1 .45-1 1v2.84h-2.64v-2.84c0-.55-.45-1-1-1s-1 .45-1 1v2.84h-2.64v-2.84c0-.55-.45-1-1-1s-1 .45-1 1v2.84H53.9v-5.1a22.81 22.81 0 0 0 1.5-.56h21.85c.95.44 1.9.8 2.88 1.1v4.56zm10.53-5.33a23.16 23.16 0 0 1-6.42-.91 22.45 22.45 0 0 1-3.52-1.33c-.01 0-.01 0-.02-.01-.06-.03-.12-.03-.18-.05-.07-.02-.14-.04-.2-.04H59.26a25.45 25.45 0 0 0 8.3-8.56c.28-.48.12-1.1-.35-1.37-.48-.28-1.1-.12-1.37.35a23.54 23.54 0 0 1-11.02 9.66c-.74.3-1.48.58-2.2.8-2.16.66-4.4 1-6.77 1.02-3.12 0-6.14-.6-9-1.8-4.5-1.9-8.33-5.23-10.86-9.4V47.73c2.53-4.18 6.37-7.52 10.86-9.4 5.7-2.4 12.3-2.4 17.97 0a1.02 1.02 0 0 0 .4.08h19.93c-3.7 2.17-6.84 5.26-9.04 9-.28.48-.12 1.1.35 1.37.48.28 1.1.12 1.37-.35a23.37 23.37 0 0 1 12.12-10.08c2.53-.92 5.18-1.38 7.88-1.38 12.8 0 23.2 10.4 23.2 23.2s-10.4 23.2-23.2 23.2zm-.01-40.37c-9.48 0-17.2 7.7-17.2 17.2s7.7 17.2 17.2 17.2 17.2-7.7 17.2-17.2-7.7-17.2-17.2-17.2zm0 32.38a15.21 15.21 0 0 1-15.2-15.2c0-8.4 6.8-15.2 15.2-15.2s15.2 6.8 15.2 15.2-6.8 15.2-15.2 15.2zm13.23-18.8c0-.01 0-.01-.01-.02-.97-3.53-3.3-6.5-6.4-8.27-2.02-1.16-4.34-1.83-6.8-1.83a13.74 13.74 0 0 0-13.72 13.72c0 1.24.18 2.44.5 3.6 0 .01.01.02.01.02.97 3.56 3.34 6.55 6.5 8.33.03.02.06.04.1.05a13.58 13.58 0 0 0 6.65 1.73 13.72 13.72 0 0 0 3.7-.52c.05-.01.1-.02.15-.04 5.7-1.67 9.88-6.93 9.88-13.16a14.69 14.69 0 0 0-.52-3.6zm-8.7 5c.1-.35.18-.7.2-1.08.47-.74 2.7-3.86 6.68-3 .2.86.32 1.74.32 2.66a11.48 11.48 0 0 1-.78 4.16c-1.86-2.17-4.4-2.77-6.42-2.75zm-16.24-1.4c0-1.47.28-2.87.78-4.17 1.82 2.13 4.3 2.77 6.3 2.77h.13c-.1.34-.18.7-.2 1.06-.45.72-2.7 3.87-6.68 3-.2-.87-.32-1.75-.32-2.66zm8.96 0c0-1.52 1.24-2.76 2.76-2.76s2.76 1.24 2.76 2.76-1.24 2.76-2.76 2.76-2.76-1.24-2.76-2.76zm13.45-4.8c-2.85-.22-5.08 1.15-6.5 2.6-.17-.32-.38-.63-.62-.9-.2-.85-.82-4.64 2.6-6.84a11.8 11.8 0 0 1 4.51 5.15zM92 49.2c-2.18 1.86-2.78 4.4-2.76 6.42-.34-.1-.7-.18-1.06-.2-.73-.46-3.86-2.73-3-6.68.85-.2 1.74-.3 2.65-.3 1.47 0 2.87.28 4.17.77zm-8.96.26c-.22 2.86 1.14 5.08 2.6 6.5-.32.17-.63.38-.9.6-.84.2-4.64.83-6.84-2.6 1.24-1.96 3.02-3.53 5.15-4.5zm-5.9 15.45c.2.02.42.05.62.05 2.57 0 4.58-1.27 5.88-2.62a5.42 5.42 0 0 0 .6.9c.2.84.8 4.66-2.6 6.84-1.97-1.23-3.56-3.02-4.5-5.17zm6.53 6.18c2.17-1.86 2.78-4.4 2.75-6.42a4.22 4.22 0 0 0 1.07.2c.73.47 3.86 2.73 3 6.68-.86.2-1.74.32-2.66.32-1.46 0-2.86-.3-4.16-.78zm8.96-.26c.22-2.86-1.15-5.08-2.6-6.5a5.42 5.42 0 0 0 .9-.6c.85-.2 4.66-.8 6.84 2.6-1.23 1.96-3.02 3.54-5.15 4.5zM45.84 42.5c-9.48 0-17.2 7.7-17.2 17.2s7.7 17.2 17.2 17.2 17.2-7.7 17.2-17.2-7.72-17.2-17.2-17.2zm0 32.38a15.21 15.21 0 0 1-15.2-15.2c0-8.4 6.8-15.2 15.2-15.2s15.2 6.8 15.2 15.2a15.21 15.21 0 0 1-15.2 15.2zm3.6-28.4a13.78 13.78 0 0 0-3.6-.49 13.63 13.63 0 0 0-6.8 1.82c-.01 0-.01.01-.02.01-3.1 1.8-5.44 4.75-6.4 8.28h0a13.78 13.78 0 0 0-.49 3.6c0 6.23 4.18 11.5 9.88 13.16.05.02.1.03.15.04a13.61 13.61 0 0 0 3.7.52 13.57 13.57 0 0 0 6.64-1.73c.03-.02.06-.03.1-.05 3.15-1.78 5.5-4.77 6.5-8.33 0-.01.01-.02.01-.02.3-1.15.5-2.34.5-3.6.01-6.32-4.3-11.64-10.12-13.23zM34.9 63.86a11.56 11.56 0 0 1-.78-4.16c0-.92.12-1.8.32-2.66 3.94-.86 6.2 2.26 6.68 3a5.33 5.33 0 0 0 .2 1.07c-2-.02-4.55.6-6.42 2.76zm10.95-1.4c-1.52 0-2.76-1.24-2.76-2.76s1.24-2.76 2.76-2.76 2.76 1.24 2.76 2.76-1.24 2.76-2.76 2.76zm4.72-3.1a5.23 5.23 0 0 0-.2-1.06h.13c2 0 4.47-.63 6.3-2.77.5 1.3.78 2.7.78 4.17 0 .9-.12 1.8-.3 2.65-3.97.87-6.23-2.26-6.7-3zm5.2-5.84c-2.18 3.4-6 2.8-6.84 2.6a4.32 4.32 0 0 0-.9-.61c1.45-1.4 2.8-3.63 2.6-6.5 2.14.95 3.92 2.53 5.15 4.5zM48.5 48.3c.87 3.96-2.27 6.22-3 6.68a5.23 5.23 0 0 0-1.06.2c.03-2.02-.58-4.56-2.76-6.42a11.56 11.56 0 0 1 4.16-.78 12.18 12.18 0 0 1 2.66.32zm-8.84 1.47c3.4 2.18 2.8 6 2.6 6.84a4.32 4.32 0 0 0-.61.9c-1.4-1.44-3.64-2.8-6.5-2.6.96-2.14 2.54-3.92 4.5-5.15zm-3.76 16.1c2.18-3.4 6-2.8 6.84-2.6a4.32 4.32 0 0 0 .9.61c-1.45 1.4-2.8 3.63-2.6 6.5a11.73 11.73 0 0 1-5.15-4.5zm7.28 5.22c-.86-3.96 2.27-6.22 3-6.68a5.33 5.33 0 0 0 1.07-.2c-.03 2.02.58 4.56 2.75 6.42a11.56 11.56 0 0 1-4.16.78 11.6 11.6 0 0 1-2.66-.32zm8.84-1.46c-3.4-2.2-2.78-6-2.6-6.84a4.32 4.32 0 0 0 .61-.9c1.3 1.34 3.32 2.62 5.88 2.62.2 0 .4-.03.62-.05a11.84 11.84 0 0 1-4.5 5.17z"/></svg>