<svg xmlns:xlink="http://www.w3.org/1999/xlink" xmlns="http://www.w3.org/2000/svg" fill="#696969" height="512" viewBox="0 0 128 128" width="512"><path d="M96.75 17.75h-65.5c-2.76 0-5 2.24-5 5v82.5c0 2.76 2.24 5 5 5h19.5l1.82 4.38c.16.37.52.62.92.62h47.25c.55 0 1-.45 1-1v-91.5c0-2.76-2.24-5-5-5zm-65.5 90.5a3.01 3.01 0 0 1-3-3v-82.5a3.01 3.01 0 0 1 3-3h65.5a3.01 3.01 0 0 1 3 3v80.87h-3.78c.63-.84 1.03-1.87 1.03-3v-7.8c0-2.76-2.24-5-5-5H74.2a2.98 2.98 0 0 1-2.12-.88l-13.7-13.7c-.2-.2-.44-.4-.68-.56l1.8-4.1c1.47.3 2.98.48 4.5.48 11.95 0 21.67-9.72 21.67-21.66 0-11.95-9.72-21.67-21.67-21.67S42.33 35.45 42.33 47.4a21.55 21.55 0 0 0 10.33 18.45c-2.58 2.17-5.12 4.35-6.74 5.9H36c-2.76 0-5 2.24-5 5v23.83c0 2.76 2.24 5 5 5h12.83l1.1 2.63H31.25zM65.62 95h-3.24c-1.1 0-2 .9-2 2v6.62h-4.63V97c0-1.1-.9-2-2-2H50.5c-1.1 0-2 .9-2 2v6.62H36a3.01 3.01 0 0 1-3-3V76.8a3.01 3.01 0 0 1 3-3h8.16c-1.8 2.87-1.24 6.53 1.32 8.33a5.55 5.55 0 0 0 3.19 1c2 0 4.03-1.02 5.34-2.88.55-.78 1.62-2.98 2.84-5.67.04.03.08.06.1.1l13.7 13.7c.93.93 2.22 1.46 3.54 1.46H92a3.01 3.01 0 0 1 3 3v7.8a3.01 3.01 0 0 1-3 3H67.62V97c0-1.1-.9-2-2-2zm-2.64-36.56c-.36-.27-.87-.27-1.23.02l-7.45 6.06a19.59 19.59 0 0 1-9.97-17.09c0-10.85 8.82-19.67 19.67-19.67s19.67 8.82 19.67 19.67c0 10.84-8.82 19.66-19.67 19.66a19.93 19.93 0 0 1-3.71-.35l3-7.1c.18-.43.05-.9-.3-1.2zm-7.94 8.07l4.9-4c-2.54 6.02-6.45 15.03-7.56 16.6-1.4 2-4 2.63-5.75 1.4s-2.03-3.88-.62-5.88c.17-.24.52-.62 1-1.1l.06-.06c1.6-1.58 4.67-4.2 7.98-6.96zm17.9 46.74v-1.92c0-.55-.45-1-1-1s-1 .45-1 1v1.92H69.9v-1.92c0-.55-.45-1-1-1s-1 .45-1 1v1.92h-1.04v-1.92c0-.55-.45-1-1-1s-1 .45-1 1v1.92h-1.2v-3.83h10.46v3.83zm20.32 0v-1.92c0-.55-.45-1-1-1s-1 .45-1 1v1.92h-2v-1.92c0-.55-.45-1-1-1s-1 .45-1 1v1.92h-2v-1.92c0-.55-.45-1-1-1s-1 .45-1 1v1.92h-1.74v-3.83H95v3.83zm6.5 0H97v-4.83c0-.55-.45-1-1-1H80.54c-.55 0-1 .45-1 1v4.83h-3.42v-4.83c0-.55-.45-1-1-1H62.67c-.55 0-1 .45-1 1v4.83h-7.5l-3.67-8.83V97h3.25v7.62c0 .55.45 1 1 1h6.63c.55 0 1-.45 1-1V97h3.24v7.62c0 .55.45 1 1 1h33.13zM65 31.64c0-.55-.45-1-1-1-6.02 0-11.6 3.26-14.6 8.5-.27.48-.1 1.1.37 1.36a1 1 0 0 0 .49.13c.35 0 .7-.18.87-.5 2.63-4.62 7.56-7.5 12.86-7.5a.99.99 0 0 0 1.01-.99zm7.78 15.8c0-4.84-3.94-8.78-8.78-8.78s-8.78 3.94-8.78 8.78S59.16 56.2 64 56.2s8.78-3.94 8.78-8.78zm-15.56 0A6.79 6.79 0 0 1 64 40.65a6.79 6.79 0 0 1 6.78 6.78A6.79 6.79 0 0 1 64 54.21a6.79 6.79 0 0 1-6.78-6.78zM34.5 29.53a4 4 0 1 0-4-4c0 2.2 1.8 4 4 4zm0-6c1.1 0 2 .9 2 2s-.9 2-2 2-2-.9-2-2 .9-2 2-2z"/><path d="M34 68a4 4 0 1 0-4-4c0 2.2 1.8 4 4 4zm0-6c1.1 0 2 .9 2 2s-.9 2-2 2-2-.9-2-2 .9-2 2-2zm60-2a4 4 0 1 0 4 4c0-2.2-1.8-4-4-4zm0 6c-1.1 0-2-.9-2-2s.9-2 2-2 2 .9 2 2-.9 2-2 2zm-.5-36.47a4 4 0 1 0 0-8 4 4 0 1 0 0 8zm0-6c1.1 0 2 .9 2 2s-.9 2-2 2-2-.9-2-2a2 2 0 0 1 2-2z"/></svg>