<svg xmlns="http://www.w3.org/2000/svg" xmlns:xlink="http://www.w3.org/1999/xlink" fill="#696969" height="512" viewBox="0 0 128 128" width="512"><path d="M103.8 17.75H77.48l-3.52-3.52a.99.99 0 0 0-.71-.29H43.18c-.55 0-1 .45-1 1v2.8h-8.52L24.57 8c-.2-.2-.45-.32-.73-.32H20c-.55 0-1 .45-1 1V64c0 .54.43 1 .97 1l3.23.08v44.17c0 .55.45 1 1 1h79.6c.55 0 1-.45 1-1v-90.5c0-.55-.45-1-1-1zm-30.96-1.8l4.87 4.87-6.18 4.44H51.37c-.55 0-1 .45-1 1s.45 1 1 1h17.38l-1.82 1.3H44.18v-6.22h20.7c.55 0 1-.45 1-1s-.45-1-1-1h-20.7v-4.4h28.66zM21 9.67h2.4l15.27 16.4v20.55L23.77 63.1 21 63.03zm81.8 98.58H25.2V96.33H32c.55 0 1-.45 1-1s-.45-1-1-1h-6.8v-2.58H32c.55 0 1-.45 1-1s-.45-1-1-1h-6.8v-2.58H32c.55 0 1-.45 1-1s-.45-1-1-1h-6.8V82.6H32c.55 0 1-.45 1-1s-.45-1-1-1h-6.8V78H32c.55 0 1-.45 1-1s-.45-1-1-1h-6.8V64.5l15.2-16.82a.97.97 0 0 0 .26-.67V25.67c0-.25-.1-.5-.27-.68l-4.88-5.24h6.65v1.05c-.1.16-.18.33-.18.54a.92.92 0 0 0 .18.54v7.7c0 .55.45 1 1 1h24.07c.2 0 .4-.07.58-.2l12-8.62a.98.98 0 0 0 .41-.73c.02-.3-.08-.58-.3-.8l-.48-.48h23.32v88.5z"/><use xlink:href="#B"/><use xlink:href="#B" x="-6.92"/><path d="M77.17 32v32c0 .55.45 1 1 1h4c.55 0 1-.45 1-1V32c0-.55-.45-1-1-1h-4c-.56 0-1 .45-1 1zm2 1h2v30h-2z"/><use xlink:href="#B" x="-20.75"/><path d="M63.5 75.94c0-.55-.45-1-1-1H40.25c-.55 0-1 .45-1 1v4c0 .55.45 1 1 1H62.5c.55 0 1-.45 1-1zm-2 3H41.25v-2H61.5zm1 5.48H40.25c-.55 0-1 .45-1 1v4c0 .55.45 1 1 1H62.5c.55 0 1-.45 1-1v-4c0-.56-.45-1-1-1zm-1 4H41.25v-2H61.5zm27 4.08H60.1c-.37 0-.7.2-.88.53l-5 9.5c-.16.3-.15.68.03.98a.99.99 0 0 0 .86.48h27.4c.34 0 .66-.18.85-.47l6-9.5c.2-.3.2-.7.03-1.02a1.09 1.09 0 0 0-.9-.5zm-6.55 9.5h-25.2l3.95-7.5h26zM50.08 53.08h9.5c.55 0 1-.45 1-1v-9.5c0-.55-.45-1-1-1h-9.5c-.55 0-1 .45-1 1v9.5c0 .56.45 1 1 1zm1-9.5h7.5v7.5h-7.5zm-9.33 28.06v-.73h1.35c.55 0 1-.45 1-1s-.45-1-1-1h-1.35v-2h1.35c.55 0 1-.45 1-1s-.45-1-1-1h-1.35V64c0-.55-.45-1-1-1h-6.42c-.55 0-1 .45-1 1v.9h-1.35c-.55 0-1 .45-1 1s.45 1 1 1h1.35v2h-1.35c-.55 0-1 .45-1 1s.45 1 1 1h1.35v.73c0 .55.45 1 1 1h6.42c.55 0 1-.44 1-1zm-2-1h-4.42V65h4.42zM43 43.6h3.33v2.98h-3.3c-.55 0-1 .45-1 1s.45 1 1 1h3.3v2.5h-3.3c-.55 0-1 .45-1 1s.45 1 1 1h3.3v2c0 .55.45 1 1 1h1.77v3.33c0 .55.45 1 1 1s1-.45 1-1v-3.33h2.98v3.3c0 .55.45 1 1 1s1-.45 1-1v-3.3h2.5v3.3c0 .55.45 1 1 1s1-.45 1-1v-3.3h1.75c.55 0 1-.45 1-1v-2.02h3.33c.55 0 1-.45 1-1s-.45-1-1-1h-3.33v-2.98h3.3c.55 0 1-.45 1-1s-.45-1-1-1h-3.3v-2.5h3.3c.55 0 1-.45 1-1s-.45-1-1-1h-3.3v-2c0-.55-.45-1-1-1h-1.77v-3.33c0-.55-.45-1-1-1s-1 .45-1 1v3.33h-2.98v-3.3c0-.55-.45-1-1-1s-1 .45-1 1v3.3h-2.5v-3.3c0-.55-.45-1-1-1s-1 .45-1 1v3.3h-1.75c-.55 0-1 .45-1 1v2.02H43c-.55 0-1 .45-1 1s.45 1 1 1zm5.33-3.02h13v13.5h-13zM30 100.75a3.01 3.01 0 0 0-3 3 3.01 3.01 0 0 0 3 3 3.01 3.01 0 0 0 3-3 3.01 3.01 0 0 0-3-3zm0 4c-.55 0-1-.45-1-1s.45-1 1-1 1 .45 1 1-.45 1-1 1zM63.35 67.7c0-2.93-2.38-5.3-5.3-5.3s-5.3 2.38-5.3 5.3 2.38 5.3 5.3 5.3 5.3-2.38 5.3-5.3zm-8.62 0c0-1.83 1.5-3.3 3.3-3.3a3.32 3.32 0 0 1 3.31 3.31 3.32 3.32 0 0 1-3.31 3.31c-1.82 0-3.3-1.48-3.3-3.3zM98 100.75a3.01 3.01 0 0 0-3 3 3.01 3.01 0 0 0 3 3 3.01 3.01 0 0 0 3-3c0-1.65-1.34-3-3-3zm0 4c-.55 0-1-.45-1-1s.45-1 1-1 1 .45 1 1-.45 1-1 1zm0-77.5a3.01 3.01 0 0 0 3-3 3.01 3.01 0 0 0-3-3 3.01 3.01 0 0 0-3 3 3.01 3.01 0 0 0 3 3zm0-4c.55 0 1 .45 1 1s-.45 1-1 1-1-.45-1-1 .45-1 1-1z"/><circle cx="61.15" cy="99.75" r="1.5"/><circle cx="82.21" cy="96.75" r="1.5"/><path d="M95.63 89.67v-16.3c0-.13-.03-.26-.08-.38s-.12-.23-.22-.33l-5.55-5.55a.91.91 0 0 0-.33-.22c-.12-.05-.25-.08-.38-.08H72.8c-.55 0-1 .45-1 1v16.3a.92.92 0 0 0 .07.36 1.19 1.19 0 0 0 .22.33l5.54 5.55a.91.91 0 0 0 .33.22c.12.05.25.08.38.08h16.3c.55 0 1-.45 1-1zm-8.74-1l-7-7c-.4-.4-1.02-.4-1.4 0s-.4 1.02 0 1.4l5.6 5.6h-5.32L73.8 83.7V68.83h7.63l7 7a.98.98 0 0 0 .71.29.97.97 0 0 0 .7-.3c.4-.4.4-1.02 0-1.4l-5.6-5.6h4.42l4.96 4.96v14.88zm-51.8-57.63a.98.98 0 0 0 .71.29.97.97 0 0 0 .7-.3c.4-.4.4-1.02 0-1.4l-11.6-11.6c-.4-.4-1.02-.4-1.4 0s-.4 1.02 0 1.4zm0 9.26a.98.98 0 0 0 .71.29.97.97 0 0 0 .7-.3c.4-.4.4-1.02 0-1.4L24.9 27.3c-.4-.4-1.02-.4-1.4 0s-.4 1.02 0 1.4zm-3.78 5.45a.98.98 0 0 0 .71.29.97.97 0 0 0 .7-.3c.4-.4.4-1.02 0-1.4l-7.8-7.8c-.4-.4-1.02-.4-1.4 0s-.4 1.02 0 1.4zm-2.57 6.27a.97.97 0 0 0 .7-.3c.4-.4.4-1.02 0-1.4L24.9 45.8c-.4-.4-1.02-.4-1.4 0s-.4 1.02 0 1.4l4.53 4.53a.97.97 0 0 0 .7.3zM49.54 96h-12c-.55 0-1 .45-1 1v8c0 .55.45 1 1 1h12c.55 0 1-.45 1-1v-8c0-.55-.45-1-1-1zm-1 4h-2v-2h2zm-4 0h-2v-2h2zm-6-2h2v2h-2zm0 4h2v2h-2zm4 0h2v2h-2zm6 2h-2v-2h2z"/><defs><path id="B" d="M92 65h4c.55 0 1-.45 1-1V32c0-.55-.45-1-1-1h-4c-.55 0-1 .45-1 1v32c0 .55.45 1 1 1zm1-32h2v30h-2z"/></defs></svg>