<svg xmlns="http://www.w3.org/2000/svg" xmlns:xlink="http://www.w3.org/1999/xlink" fill="#696969" height="512" viewBox="0 0 128 128" width="512"><path d="M105.14 30.22h-82.5c-2.76 0-5 2.24-5 5V93c0 2.76 2.24 5 5 5h82.5c2.76 0 5-2.24 5-5V35.22c0-2.76-2.24-5-5-5zm3 62.78a3.01 3.01 0 0 1-3 3h-82.5a3.01 3.01 0 0 1-3-3V35.22a3.01 3.01 0 0 1 3-3h82.5a3.01 3.01 0 0 1 3 3zm-81.3-49.55a4 4 0 1 0 0-8 4 4 0 1 0 0 8zm0-6c1.1 0 2 .9 2 2s-.9 2-2 2-2-.9-2-2 .9-2 2-2zm74.1 6a4 4 0 1 0-4-4c0 2.2 1.8 4 4 4zm0-6c1.1 0 2 .9 2 2s-.9 2-2 2-2-.9-2-2 .9-2 2-2zm-74.1 47.1a4 4 0 1 0 4 4c0-2.2-1.8-4-4-4zm0 6c-1.1 0-2-.9-2-2s.9-2 2-2 2 .9 2 2-.9 2-2 2zm74.1-6a4 4 0 1 0 0 8 4 4 0 1 0 0-8zm0 6c-1.1 0-2-.9-2-2s.9-2 2-2 2 .9 2 2-.9 2-2 2zm-39.8-42.2a22.59 22.59 0 0 0-16.1-6.68 22.55 22.55 0 0 0-16.09 6.68c-4.3 4.3-6.68 10-6.68 16.1a22.59 22.59 0 0 0 6.68 16.1 22.59 22.59 0 0 0 16.1 6.68 22.59 22.59 0 0 0 16.1-6.68c4.3-4.3 6.68-10 6.68-16.1a22.66 22.66 0 0 0-6.69-16.1zM60.4 78.4L59 77c.95-1.05 1.78-2.2 2.46-3.42 1.4-2.5 2.2-5.28 2.34-8.12h1.98a20.55 20.55 0 0 1-5.37 12.94zM24.3 65.45h2a18.56 18.56 0 0 0 .68 4.13c.77 2.74 2.18 5.28 4.1 7.42l-1.4 1.4a20.6 20.6 0 0 1-5.37-12.95zm5.37-14.94l1.4 1.4a18.94 18.94 0 0 0-2.44 3.41 18.76 18.76 0 0 0-2.34 8.14h-2a20.5 20.5 0 0 1 5.37-12.95zm27.9 25.06l-6.72-6.72c2.28-.14 6.16.3 8.54 4.23a16.56 16.56 0 0 1-1.82 2.49zM43.03 61.44c.67-.7 1.55-1.1 2.5-1.2.94.1 1.82.5 2.5 1.2a4.23 4.23 0 0 1 1.25 3 4.58 4.58 0 0 1-.08.83 4.14 4.14 0 0 1-1.17 2.17c-.2.2-.42.38-.65.53a4.01 4.01 0 0 1-1.85.66c-.94-.1-1.82-.5-2.5-1.2a4.23 4.23 0 0 1-1.25-3 4.19 4.19 0 0 1 1.25-3zm6.4-2.82c-.14-2.28.3-6.15 4.23-8.53a16.99 16.99 0 0 1 2.48 1.82zm-2-.27c-.46-.1-.93-.17-1.4-.17V47.7c1.93.12 3.82.57 5.6 1.33-3.68 2.77-4.27 6.73-4.2 9.32zm-3.4-1.13c-1.72-1.5-4.15-4.54-3.04-9.05 1-.25 2.02-.4 3.04-.47zm-1.36 1.43a5.87 5.87 0 0 0-1.29.73L33.9 51.9a16.48 16.48 0 0 1 4.91-3.02c-.68 4.75 1.93 8.05 3.86 9.77zm-3.46 1.4c-2.28.15-6.14-.28-8.54-4.26a16.84 16.84 0 0 1 1.81-2.47zm-9.6-2.2c2.6 3.5 6.3 4.2 8.88 4.2a18.34 18.34 0 0 0 .77-.02 6.49 6.49 0 0 0-.41 1.43H28.28c.12-1.94.58-3.85 1.34-5.62zm8.18 7.6c-1.5 1.72-4.54 4.14-9.04 3.03a16.46 16.46 0 0 1-.47-3.03zm-6.83 5.33c3.95 0 6.74-2.27 8.27-3.98.2.46.43.9.73 1.3l-7.48 7.48c-1.3-1.45-2.3-3.12-3.03-4.9.52.08 1.02.1 1.5.1zm9.65-.5c.14 2.28-.32 6.15-4.23 8.53a16.29 16.29 0 0 1-2.48-1.82zm1.98-.07a5.84 5.84 0 0 0 1.43.4v10.56c-1.93-.12-3.84-.55-5.6-1.3 3.84-2.9 4.32-7.08 4.18-9.66zm3.43 1.47c1.7 1.5 4.13 4.57 3.05 9.03a16.54 16.54 0 0 1-3.05.47zm1.63-1.2c.5-.13.97-.32 1.4-.57l7.1 7.1a16.88 16.88 0 0 1-4.89 3.03c.63-4.56-1.72-7.77-3.6-9.55zm12.78.56c-2.54-3.37-6.07-4.15-8.64-4.2.2-.45.3-.92.4-1.4h9.6a16.88 16.88 0 0 1-1.34 5.59zm-8.2-7.6c1.5-1.72 4.55-4.16 9.06-3.05a16.54 16.54 0 0 1 .47 3.05zm-.76-2.06c-.23-.4-.5-.8-.84-1.15l6.93-6.92a16.88 16.88 0 0 1 3.03 4.89c-4.2-.6-7.27 1.4-9.12 3.18zm6.1-10.9a18.93 18.93 0 0 0-3.26-2.36c-.01-.01-.02-.01-.03-.02-.04-.02-.08-.05-.12-.07-2.5-1.4-5.3-2.16-8.13-2.32v-2a20.55 20.55 0 0 1 12.94 5.37zM44.03 45.7c-1.4.07-2.8.28-4.14.66a18.75 18.75 0 0 0-7.4 4.1l-1.4-1.4c3.58-3.27 8.1-5.15 12.94-5.37v2zM32.48 78.4a18.01 18.01 0 0 0 3.4 2.43c.01 0 .01.01.02.01 2.5 1.4 5.28 2.2 8.14 2.36v1.98A20.51 20.51 0 0 1 31.1 79.8zm13.55 4.8c1.4-.08 2.8-.3 4.15-.7h.01c.02-.01.03-.01.05-.02 2.7-.77 5.22-2.17 7.33-4.07l1.4 1.4a20.52 20.52 0 0 1-12.94 5.37zm17.75-19.75a18.83 18.83 0 0 0-.68-4.15c-.78-2.73-2.2-5.26-4.1-7.4l1.4-1.4a20.53 20.53 0 0 1 5.38 12.94z"/><use xlink:href="#B"/><use xlink:href="#B" x="7.45"/><use xlink:href="#C"/><use xlink:href="#C" x="7.45"/><use xlink:href="#D"/><path d="M72.98 70c1.93 0 3.5-1.57 3.5-3.5S74.9 63 72.98 63s-3.5 1.57-3.5 3.5 1.57 3.5 3.5 3.5zm0-5a1.5 1.5 0 1 1 0 3 1.5 1.5 0 1 1 0-3z"/><use xlink:href="#E"/><use xlink:href="#E" x="7.45"/><use xlink:href="#C" x="7.45" y="16.57"/><use xlink:href="#D" y="16.57"/><use xlink:href="#F"/><use xlink:href="#B" x="12.45" y="8.67"/><use xlink:href="#F" x="14.9"/><use xlink:href="#F" x="22.35"/><path d="M74.48 74.7c0 1.93 1.57 3.5 3.5 3.5s3.5-1.57 3.5-3.5-1.57-3.5-3.5-3.5-3.5 1.57-3.5 3.5zm5 0a1.5 1.5 0 1 1-3 0 1.5 1.5 0 1 1 3 0z"/><use xlink:href="#B" x="12.45" y="24.77"/><path d="M92.88 71.2c-1.93 0-3.5 1.57-3.5 3.5s1.57 3.5 3.5 3.5 3.5-1.57 3.5-3.5-1.57-3.5-3.5-3.5zm0 5a1.5 1.5 0 1 1 0-3 1.5 1.5 0 1 1 0 3z"/><use xlink:href="#C" x="12.45" y="24.77"/><path d="M88.64 80.75H70.9c-.55 0-1 .45-1 1v7.5a1.03 1.03 0 0 0 .25.67l4 4.5c.2.2.46.33.75.33h9.75c.3 0 .56-.12.75-.33l4-4.5a1.01 1.01 0 0 0 .25-.67v-7.5c0-.55-.45-1-1-1zm-1 8.12l-3.45 3.88h-8.85l-3.45-3.88v-6.12h15.75zm-7.87 3.46c.55 0 1-.45 1-1v-2.78c0-.55-.45-1-1-1s-1 .45-1 1v2.78a.99.99 0 0 0 1 1zm-4.67-3.2c.55 0 1-.45 1-1v-2.78c0-.55-.45-1-1-1s-1 .45-1 1v2.78c0 .55.45 1 1 1zm9.33 0c.55 0 1-.45 1-1v-2.78c0-.55-.45-1-1-1s-1 .45-1 1v2.78c0 .55.45 1 1 1zM64.9 86.75H53.7c-.55 0-1 .45-1 1v6c0 .55.45 1 1 1h11.2c.55 0 1-.45 1-1v-6c0-.55-.45-1-1-1zm-1 6h-9.2v-4h9.2z"/><defs><path id="B" d="M72.98 53.43c1.93 0 3.5-1.57 3.5-3.5s-1.57-3.5-3.5-3.5-3.5 1.57-3.5 3.5 1.57 3.5 3.5 3.5zm0-5a1.5 1.5 0 1 1 0 3 1.5 1.5 0 1 1 0-3z"/><path id="C" d="M87.88 53.43c1.93 0 3.5-1.57 3.5-3.5s-1.57-3.5-3.5-3.5-3.5 1.57-3.5 3.5 1.57 3.5 3.5 3.5zm0-5a1.5 1.5 0 1 1 0 3 1.5 1.5 0 0 1-1.5-1.5c0-.83.68-1.5 1.5-1.5z"/><path id="D" d="M102.8 46.43c-1.93 0-3.5 1.57-3.5 3.5s1.57 3.5 3.5 3.5 3.5-1.57 3.5-3.5a3.51 3.51 0 0 0-3.5-3.5zm0 5a1.5 1.5 0 1 1 0-3 1.5 1.5 0 0 1 1.5 1.5c0 .83-.68 1.5-1.5 1.5z"/><path id="E" d="M83.93 66.5c0-1.93-1.57-3.5-3.5-3.5s-3.5 1.57-3.5 3.5 1.57 3.5 3.5 3.5 3.5-1.57 3.5-3.5zm-3.5 1.5a1.5 1.5 0 1 1 0-3 1.5 1.5 0 1 1 0 3z"/><path id="F" d="M81.48 58.6c0-1.93-1.57-3.5-3.5-3.5s-3.5 1.57-3.5 3.5 1.57 3.5 3.5 3.5 3.5-1.57 3.5-3.5zm-5 0a1.5 1.5 0 1 1 3 0 1.5 1.5 0 1 1-3 0z"/></defs></svg>