<svg xmlns:xlink="http://www.w3.org/1999/xlink" xmlns="http://www.w3.org/2000/svg" fill="#696969" height="512" viewBox="0 0 128 128" width="512"><path d="M43.27 91.4a3 3 0 0 0 2.12-.88l6-6a3 3 0 0 0 0-4.24L39.6 68.44a3 3 0 0 0-4.24 0l-6 6a3 3 0 0 0 0 4.24l11.8 11.8c.6.6 1.36.9 2.12.9zM30.75 75.87l6-6c.2-.2.45-.3.7-.3s.5.1.7.3L50 81.67c.4.4.4 1.02 0 1.4l-6 6c-.4.4-1.03.4-1.4 0l-11.82-11.8c-.4-.4-.4-1.02 0-1.4zm23.6 1.43a2.97 2.97 0 0 0 2.12.88 2.97 2.97 0 0 0 2.12-.88l6-6a3 3 0 0 0 0-4.24L52.8 55.24a3.08 3.08 0 0 0-4.24 0l-6 6a3 3 0 0 0 0 4.24zm-10.4-14.64l6-6a.99.99 0 0 1 .71-.29.99.99 0 0 1 .71.29l11.8 11.8c.4.4.4 1.02 0 1.4l-6 6c-.38.38-1.04.38-1.4 0l-11.82-11.8c-.4-.4-.4-1.02 0-1.4zm38.75-13.7a2.97 2.97 0 0 0 2.12.88 2.97 2.97 0 0 0 2.12-.88l6-6a3 3 0 0 0 0-4.24L81.13 26.9a3 3 0 0 0-4.24 0l-6 6a3 3 0 0 0 0 4.24zM72.3 34.32l6-6c.2-.2.45-.3.7-.3s.5.1.7.3l11.8 11.8a1.01 1.01 0 0 1 0 1.42l-6 6c-.38.38-1.04.38-1.4 0l-11.8-11.8a1.01 1.01 0 0 1 0-1.42zm-2.8 27.85a2.97 2.97 0 0 0 2.12.88 2.97 2.97 0 0 0 2.12-.88l6-6a3 3 0 0 0 0-4.24L67.93 40.1a3.08 3.08 0 0 0-4.24 0l-6 6a3 3 0 0 0 0 4.24zM59.1 47.52l6-6a.99.99 0 0 1 .71-.29.99.99 0 0 1 .71.29l11.8 11.8a1.01 1.01 0 0 1 0 1.42l-6 6c-.38.38-1.04.38-1.4 0L59.1 48.94a1.01 1.01 0 0 1 0-1.42zm55.13-4.32l-9.25-9.25c-.4-.4-1.02-.4-1.4 0a3.08 3.08 0 0 1-4.24 0 3 3 0 0 1 0-4.24.98.98 0 0 0 .29-.71.97.97 0 0 0-.3-.7l-2.12-2.12c-.4-.4-1.02-.4-1.4 0a3.08 3.08 0 0 1-4.24 0 3 3 0 0 1 0-4.24.98.98 0 0 0 .29-.71.97.97 0 0 0-.3-.7l-9.17-9.17c-.4-.4-1.02-.4-1.4 0L13.77 78.5c-.4.4-.4 1.02 0 1.4l9.17 9.17a.98.98 0 0 0 .71.29.97.97 0 0 0 .7-.3 3.08 3.08 0 0 1 4.24 0 3 3 0 0 1 0 4.24.98.98 0 0 0-.29.71.97.97 0 0 0 .3.7l2.12 2.12a.98.98 0 0 0 .71.29.97.97 0 0 0 .7-.3 3.08 3.08 0 0 1 4.24 0 2.97 2.97 0 0 1 .88 2.12 2.97 2.97 0 0 1-.88 2.12c-.4.4-.4 1.02 0 1.4l9.25 9.25a.98.98 0 0 0 .71.29.97.97 0 0 0 .7-.3l31.63-31.63c.4-.4.4-1.02 0-1.4L76.8 76.8a1.74 1.74 0 0 1-.51-1.24 1.74 1.74 0 0 1 .51-1.24c.33-.33.76-.5 1.25-.5.5 0 .9.18 1.23.5l1.86 1.86a.91.91 0 0 0 .33.22.99.99 0 0 0 1.08-.22l31.65-31.6a.99.99 0 0 0 .29-.71c0-.27-.1-.52-.27-.7zM34.26 94a4.95 4.95 0 0 0-2.76.83l-.85-.85c1.28-1.94 1.07-4.6-.64-6.3-1.7-1.7-4.35-1.92-6.3-.64l-7.8-7.84 65.76-65.76 7.83 7.83c-1.28 1.94-1.07 4.6.64 6.3.95.94 2.2 1.47 3.54 1.47a4.95 4.95 0 0 0 2.76-.83l.85.85c-1.28 1.94-1.07 4.6.64 6.3.95.94 2.2 1.47 3.54 1.47a4.95 4.95 0 0 0 2.76-.83l1.8 1.8-65.76 65.76-1.8-1.8a4.95 4.95 0 0 0 .83-2.76 4.98 4.98 0 0 0-1.47-3.54A4.97 4.97 0 0 0 34.29 94zm73.4-45.65L105 45.68c-.4-.4-1.02-.4-1.4 0s-.4 1.02 0 1.4l2.66 2.66-5.55 5.55-2.66-2.66c-.4-.4-1.02-.4-1.4 0s-.4 1.02 0 1.4l2.66 2.66-5.55 5.55-2.66-2.66c-.4-.4-1.02-.4-1.4 0s-.4 1.02 0 1.4l2.66 2.66-5.55 5.55-2.66-2.66c-.4-.4-1.02-.4-1.4 0s-.4 1.02 0 1.4l2.66 2.66-3.5 3.5-1.15-1.15c-.7-.7-1.63-1.08-2.64-1.1-1 .03-1.95.38-2.66 1.1a3.72 3.72 0 0 0 0 5.3l1.15 1.15-3.5 3.5-2.66-2.66c-.4-.4-1.02-.4-1.4 0s-.4 1.02 0 1.4l2.66 2.66-5.55 5.55-2.66-2.66c-.4-.4-1.02-.4-1.4 0s-.4 1.02 0 1.4l2.66 2.66-5.55 5.55-2.66-2.66c-.4-.4-1.02-.4-1.4 0s-.4 1.02 0 1.4l2.66 2.66-5.55 5.55-2.66-2.66c-.4-.4-1.02-.4-1.4 0s-.4 1.02 0 1.4l2.66 2.66-4.44 4.44-4.7-4.7 65.75-65.73 4.7 4.7zM81.68 21.9a2.8 2.8 0 0 0 2.81-2.81 2.8 2.8 0 0 0-.82-1.99c-1.1-1.1-2.88-1.1-3.98 0a2.8 2.8 0 0 0-.82 1.99 2.8 2.8 0 0 0 2.81 2.81zm-.57-3.4a.82.82 0 0 1 1.16 0c.15.15.24.36.24.58a.8.8 0 0 1-.24.58.81.81 0 0 1-1.15 0c-.15-.15-.24-.36-.24-.58a.79.79 0 0 1 .23-.58zm-57.6 58.75c-1.1-1.1-2.88-1.1-3.98 0a2.8 2.8 0 0 0 1.99 4.8 2.8 2.8 0 0 0 1.99-4.8zm-1.4 2.57a.81.81 0 0 1-1.15 0c-.15-.15-.24-.36-.24-.58a.8.8 0 0 1 .24-.58.82.82 0 0 1 1.16 0c.15.15.24.36.24.58s-.1.43-.25.58z"/></svg>