<svg xmlns:xlink="http://www.w3.org/1999/xlink" xmlns="http://www.w3.org/2000/svg" version="1.0" width="1365.333" fill="#696969" height="1365.333" viewBox="0 0 1024 1024"><path d="M148.5 148.5l-2.5 2.4v166c0 91.3.3 166.7.6 167.6 1.8 4.7-4.6 4.5 170.2 4.5 116 0 164.8-.3 167-1.1 2.4-.8 3.4-2 4.2-4.7.8-2.6 1-54.9.8-168.5l-.3-164.9-2.4-1.9c-2.3-1.9-6.4-1.9-168.8-1.9H150.9l-2.4 2.5zm321.2 15.7l2.3 2.1v301.1l-2.2 2.3-2.1 2.3H166.6l-2.3-2.2-2.3-2.1V167.2l2.3-2.6 2.2-2.6h300.9l2.3 2.2zM537.9 147.9l-2.4 1.9-.3 164.9c-.2 113.6 0 165.9.8 168.5.8 2.7 1.8 3.9 4.2 4.7 2.2.8 51 1.1 167 1.1 174.8 0 168.4.2 170.2-4.5.3-.9.6-76.3.6-167.6v-166l-2.5-2.4-2.4-2.5H706.7c-162.4 0-166.5 0-168.8 1.9zm321.7 16.7l2.4 2.5V467.4l-2.2 2.3-2.1 2.3H556.6l-2.3-2.2-2.3-2.1V166.6l2.2-2.3 2.1-2.3h301l2.3 2.6zM150.5 536.2c-4.7 2.5-4.5-5.5-4.5 170.5v166.4l2.5 2.4 2.4 2.5h166.4c162.4 0 166.5 0 168.8-1.9l2.4-1.9.3-164.9c.2-113.6 0-165.9-.8-168.5-.8-2.7-1.8-3.9-4.2-4.7-4.4-1.6-330.5-1.5-333.3.1zm319.2 18l2.3 2.1v301.1l-2.2 2.3-2.1 2.3h-301l-2.3-2.6-2.4-2.5V556.6l2.2-2.3 2.1-2.3h301.1l2.3 2.2zM539.8 536.2c-2 .7-3.1 2-3.8 4.6-.8 2.6-1 54.4-.8 168.5l.3 164.9 2.4 1.9c2.3 1.9 6.4 1.9 168.8 1.9h166.4l2.4-2.5 2.5-2.4v-166c0-91.3-.3-166.7-.6-167.6-1.8-4.7 4.7-4.5-170.6-4.4-106.7 0-165.3.4-167 1.1zm319.9 18l2.3 2.1v300.6l-2.4 2.5-2.3 2.6H556.6l-2.3-2.2-2.3-2.1V556.6l2.2-2.3 2.1-2.3h301.1l2.3 2.2z"/></svg>