<svg xmlns="http://www.w3.org/2000/svg" xmlns:xlink="http://www.w3.org/1999/xlink" fill="#696969" height="512" viewBox="0 0 128 128" width="512"><path d="m89.25 42.25h-50.5c-2.76 0-5 2.24-5 5v33.5c0 2.76 2.24 5 5 5h50.5c2.76 0 5-2.24 5-5v-33.5c0-2.75-2.25-5-5-5zm3 38.5c0 1.65-1.35 3-3 3h-50.5c-1.65 0-3-1.35-3-3v-33.5c0-1.65 1.35-3 3-3h50.5c1.65 0 3 1.35 3 3z"/><use xlink:href="#B"/><path d="m32 36.75c1.65 0 3-1.35 3-3s-1.35-3-3-3-3 1.35-3 3 1.34 3 3 3zm0-4c.55 0 1 .45 1 1s-.45 1-1 1-1-.45-1-1 .45-1 1-1z"/><use xlink:href="#B" x="59"/><path d="M90.96 36.75a3.01 3.01 0 0 0 3-3 3.01 3.01 0 0 0-3-3 3.01 3.01 0 0 0-3 3c0 1.65 1.34 3 3 3zm0-4c.55 0 1 .45 1 1s-.45 1-1 1-1-.45-1-1 .44-1 1-1zm19.3.48v-1.98c0-2.76-2.24-5-5-5h-82.5c-2.76 0-5 2.24-5 5v65.5c0 1.34.52 2.6 1.46 3.54s2.2 1.46 3.54 1.46h82.5c2.76 0 5-2.24 5-5V33.23zm-2 8.8h-2.16c-.55 0-1 .45-1 1s.45 1 1 1h2.16v2.1h-2.16c-.55 0-1 .45-1 1s.45 1 1 1h2.16v2.1h-2.16c-.55 0-1 .45-1 1s.45 1 1 1h2.16v2.1h-2.16c-.55 0-1 .45-1 1s.45 1 1 1h2.16v3.2h-4.33v-21h4.33zM103.9 61.5h4.33v2.3h-2.16c-.55 0-1 .45-1 1s.45 1 1 1h2.16v2.8h-2.16c-.55 0-1 .45-1 1s.45 1 1 1h2.16v2.8h-2.16c-.55 0-1 .45-1 1s.45 1 1 1h2.16v2.44h-4.33zm4.34-25h-5.33c-.55 0-1 .45-1 1v41.38c0 .55.45 1 1 1h5.33v2.04h-7.37V34.25h7.37zM95 28.25v7c0 2.2-1.8 4-4.08 4a4 4 0 0 1-4-4v-7zm-58.96 0v7c0 2.2-1.8 4-4.08 4a4 4 0 0 1-4-4v-7zm-8.08 71.5v-7c0-2.2 1.8-4 4.08-4a4 4 0 0 1 4 4v7zm58.95 0v-7c0-2.2 1.8-4 4.08-4a4 4 0 0 1 4 4v7zm18.34 0H97v-7c0-3.3-2.7-6-6.08-6a6.02 6.02 0 0 0-6 6v7H38.04v-7c0-3.3-2.7-6-6.08-6a6.02 6.02 0 0 0-6 6v7h-3.2c-.8 0-1.56-.3-2.12-.88s-.88-1.32-.88-2.12v-65.5a3.01 3.01 0 0 1 3-3h3.2v7c0 3.3 2.7 6 6.08 6a6.02 6.02 0 0 0 6-6v-7h46.88v7c0 3.3 2.7 6 6.08 6a6.02 6.02 0 0 0 6-6v-7h8.25a3.01 3.01 0 0 1 3 3v1h-8.37c-.55 0-1 .45-1 1v49.67c0 .55.45 1 1 1h8.37v12.83c0 1.66-1.35 3-3 3z"/><use xlink:href="#C"/><use xlink:href="#C" x="13.34"/><path d="m81.76 58.37c-.57-.5-1.21-.84-1.91-1.03s-1.55-.27-2.53-.27h-3.78c-.63 0-1.08.14-1.36.42s-.42.73-.42 1.36v10.5c0 .46.04.84.12 1.13s.26.51.52.67.66.24 1.19.24h3.78c.66 0 1.25-.04 1.77-.13s1.01-.23 1.47-.44.88-.48 1.26-.83c.49-.45.89-.96 1.2-1.53s.54-1.21.69-1.92.24-1.49.24-2.35c0-2.61-.75-4.55-2.24-5.82zm-2.16 10.04c-.21.19-.47.34-.76.44s-.58.17-.85.2-.65.04-1.13.04h-2.2v-9.72h1.91c.89 0 1.64.1 2.27.29s1.15.64 1.58 1.34.64 1.76.64 3.17c0 2-.49 3.41-1.46 4.24z"/><defs><path id="B" d="m32 91.25c-1.65 0-3 1.35-3 3s1.35 3 3 3 3-1.35 3-3-1.35-3-3-3zm0 4c-.55 0-1-.45-1-1s.45-1 1-1 1 .45 1 1-.45 1-1 1z"/><path id="C" d="M54.48 64.02c-.46-.33-1.02-.6-1.67-.83s-1.4-.44-2.2-.63l-1.4-.37c-.28-.08-.56-.2-.83-.35s-.5-.33-.64-.54a1.25 1.25 0 0 1-.23-.74c0-.46.23-.86.7-1.2s1.06-.5 1.8-.5c.8 0 1.4.15 1.76.45s.68.72.94 1.26c.2.38.4.65.56.82s.42.25.76.25c.36 0 .67-.14.9-.42s.37-.6.37-.93c0-.38-.1-.77-.3-1.16s-.5-.78-.93-1.14-.96-.65-1.6-.87-1.4-.33-2.28-.33c-1.1 0-2.06.16-2.87.5s-1.44.8-1.87 1.4-.64 1.3-.64 2.1c0 .83.2 1.52.6 2.08s.96 1 1.65 1.32 1.55.6 2.58.84l1.84.5c.46.16.83.38 1.12.68s.43.68.43 1.16c0 .6-.27 1.1-.8 1.5s-1.24.6-2.1.6c-.63 0-1.13-.1-1.5-.3s-.68-.45-.9-.76-.4-.7-.6-1.14c-.15-.38-.33-.67-.54-.87s-.47-.3-.78-.3c-.38 0-.7.13-.93.38s-.37.55-.37.9c0 .6.2 1.23.6 1.87s.94 1.15 1.6 1.54c.92.53 2.08.8 3.5.8 1.18 0 2.2-.2 3.06-.6s1.5-.93 1.96-1.62.67-1.47.67-2.33c0-.72-.13-1.33-.4-1.83a3.48 3.48 0 0 0-1.09-1.23z"/></defs></svg>