<svg xmlns:xlink="http://www.w3.org/1999/xlink" xmlns="http://www.w3.org/2000/svg" version="1.0" width="682.667" fill="#696969" height="682.667" viewBox="0 0 512 512"><path d="M149 70.7c-.8.3-1.8 1.1-2.2 1.7-.4.6-.8 12.9-.8 27.3V126h-22c-20.7 0-22.1.1-24 2-2 2-2 3.3-2 155.8 0 137.5.2 154 1.6 156l1.5 2.2h130.8c103 0 131.1-.3 132.4-1.3 1.5-1.1 1.7-4.2 1.9-27.7l.3-26.5 21.9-.3c18.7-.2 22.3-.5 23.8-1.9 1.7-1.5 1.8-8.4 1.8-156 0-153 0-154.3-2-156.3s-3.3-2-131.7-1.9c-71.4 0-130.5.3-131.3.6zM406 228v150h-40V128l-2.6-1c-1.6-.6-41.4-1-106.5-1H153v-23.3c0-12.9.3-23.7.7-24 .3-.4 57.3-.7 126.5-.7H406v150zm-47 56v150H106V134h253v150z"/><path d="M254.2 167.6c-2.6 1.8-2.7 2.7-.6 4.8 1.3 1.4 6 1.6 35.5 1.6 21.6 0 34.7-.4 36-1 2.5-1.4 2.4-3.5-.3-5.4-1.9-1.4-7-1.6-35.3-1.6-28.3 0-33.4.2-35.3 1.6zM140.3 224c-2.5 1-3 3.9-1.1 5.8 1.6 1.6 182.9 1.8 185.9.2 2.5-1.4 2.4-3.5-.3-5.4-2-1.4-12.3-1.6-92.3-1.5-51.2 0-91 .4-92.2.9zM138.9 253.6c-.9 1.1-1 2-.2 3.2.9 1.6 8.3 1.7 93.8 1.7s92.9-.1 93.8-1.7c.8-1.2.7-2.1-.2-3.2-1.2-1.4-10.6-1.6-93.6-1.6s-92.4.2-93.6 1.6zM139.8 281.1c-2.4 1.3-2.3 4.6.1 5.9 1.3.7 32.1 1 92.8 1 97.1 0 95.4.1 93.9-4.7-.4-1.2-1.7-2.4-2.9-2.7-4-1.1-182.1-.6-183.9.5zM138.9 310.6c-.9 1.1-1 2-.2 3.2.9 1.6 8.3 1.7 93.8 1.7s92.9-.1 93.8-1.7c.8-1.2.7-2.1-.2-3.2-1.2-1.4-10.6-1.6-93.6-1.6s-92.4.2-93.6 1.6zM139.8 338.1c-2.4 1.3-2.3 4.6.1 5.9 1.3.7 32 1 92.6 1 60.6 0 91.3-.3 92.6-1 2.3-1.3 2.4-3.3.3-5.4-1.4-1.4-11.1-1.6-92.7-1.6-60.1.1-91.8.4-92.9 1.1zM138.9 367.6c-.9 1.1-1 2-.2 3.2.9 1.6 8.3 1.7 93.8 1.7s92.9-.1 93.8-1.7c.8-1.2.7-2.1-.2-3.2-1.2-1.4-10.6-1.6-93.6-1.6s-92.4.2-93.6 1.6zM173.8 395.1c-2.4 1.3-2.3 4.6.1 5.9 1.3.6 21.6 1 59 1 50.4 0 57.1-.2 58.5-1.6.9-.8 1.6-1.9 1.6-2.4s-.7-1.6-1.6-2.4c-1.4-1.4-8-1.6-58.7-1.6-37 .1-57.8.4-58.9 1.1z"/></svg>