<?xml version="1.0" encoding="UTF-8" standalone="no"?>
<svg
   xmlns:dc="http://purl.org/dc/elements/1.1/"
   xmlns:cc="http://creativecommons.org/ns#"
   xmlns:rdf="http://www.w3.org/1999/02/22-rdf-syntax-ns#"
   xmlns:svg="http://www.w3.org/2000/svg"
   xmlns="http://www.w3.org/2000/svg"
   xmlns:sodipodi="http://sodipodi.sourceforge.net/DTD/sodipodi-0.dtd"
   xmlns:inkscape="http://www.inkscape.org/namespaces/inkscape"
   version="1.1"
   x="0px"
   y="0px"
   viewBox="0 0 1000 1000"
   enable-background="new 0 0 1000 1000"
   xml:space="preserve"
   id="svg843"
   sodipodi:docname="circle.svg"
   inkscape:version="1.0.1 (c497b03c, 2020-09-10)"><defs
   id="defs847" /><sodipodi:namedview
   pagecolor="#ffffff"
   bordercolor="#666666"
   borderopacity="1"
   objecttolerance="10"
   gridtolerance="10"
   guidetolerance="10"
   inkscape:pageopacity="0"
   inkscape:pageshadow="2"
   inkscape:window-width="1440"
   inkscape:window-height="856"
   id="namedview845"
   showgrid="false"
   inkscape:zoom="0.67"
   inkscape:cx="500"
   inkscape:cy="500"
   inkscape:window-x="0"
   inkscape:window-y="22"
   inkscape:window-maximized="1"
   inkscape:current-layer="svg843" />
<metadata
   id="metadata833"> Svg Vector Icons : http://www.onlinewebfonts.com/icon <rdf:RDF><cc:Work
     rdf:about=""><dc:format>image/svg+xml</dc:format><dc:type
       rdf:resource="http://purl.org/dc/dcmitype/StillImage" /><dc:title></dc:title></cc:Work></rdf:RDF></metadata>
<g
   id="g841"
   style="fill:#0055d4"><g
     transform="translate(0.000000,502.000000) scale(0.100000,-0.100000)"
     id="g839"
     style="fill:#0055d4"><path
       d="M4628.8,4909.8c-839-66.5-1640.8-342.2-2329.2-799.9C1116.5,3323.7,353.7,2123,136.7,705.1c-48.9-316.8-48.9-1056,0-1369c84.1-535.8,228.8-1003.2,463.5-1476.5C1711-4391.3,4310-5435.6,6674.4-4584.9c297.3,107.6,762.7,342.2,1024.8,516.3c1146,762.7,1906.8,1942,2141.4,3310.9c99.7,586.7,72.4,1284.8-70.4,1912.6c-111.5,483.1-393.1,1132.3-674.7,1554.7c-795.9,1198.8-2031.9,1973.2-3457.6,2170.8C5379.8,4915.6,4886.9,4931.3,4628.8,4909.8z M5665.3,4508.9c747.1-115.4,1449.1-412.7,2073-878.1c238.6-178,694.3-633.6,874.2-874.2c363.7-486.9,633.6-1044.3,776.4-1605.6c105.6-416.5,136.9-672.7,136.9-1130.4c0-741.2-146.7-1376.8-467.4-2014.3c-232.7-465.4-479.1-801.8-860.5-1183.2c-479.1-479.1-956.3-792-1588-1038.4c-510.4-199.5-1015-291.4-1619.3-289.4c-463.5,0-692.3,27.4-1112.8,133c-1279,324.6-2360.5,1200.8-2945.2,2387.8c-309,627.8-442,1157.7-463.5,1857.9c-11.7,397,11.7,694.3,82.1,1052.1c391.1,1936.1,2028,3410.7,4009.1,3612.1C4804.8,4561.7,5418.9,4546,5665.3,4508.9z"
       id="path835"
       style="fill:#0055d4" /><path
       d="M3922.8,2408.5c-39.1-41.1-56.7-76.3-56.7-123.2c0-58.7,90-154.5,1099.1-1163.6l1101-1101l-1101-1101C3956.1-2089.5,3866.1-2185.3,3866.1-2244c0-93.9,90-179.9,189.7-179.9c72.4,0,105.6,33.3,1257.5,1183.2C6488.6-65.4,6496.4-57.6,6496.4,20.7s-7.8,86-1183.2,1261.4C4161.4,2432,4128.2,2465.2,4055.8,2465.2C3999.1,2465.2,3965.8,2451.5,3922.8,2408.5z"
       id="path837"
       style="fill:#0055d4" /></g></g>
</svg>
